<svg width="24" height="24" viewBox="0 0 24 24" fill="none" xmlns="http://www.w3.org/2000/svg">
<path d="M19.6799 8.98726L12.719 16.1899C12.3259 16.5966 11.674 16.5966 11.2809 16.1899L4.31995 8.98726C4.11131 8.77067 3.99726 8.48007 4.00288 8.17938C4.00851 7.8787 4.13335 7.59257 4.34995 7.38393C4.56654 7.17529 4.85714 7.06124 5.15783 7.06687C5.45851 7.0725 5.74464 7.19734 5.95328 7.41393L11.9999 13.6739L18.0533 7.41393C18.2619 7.19734 18.548 7.0725 18.8487 7.06687C19.1494 7.06124 19.44 7.17529 19.6566 7.38393C19.8732 7.59257 19.998 7.8787 20.0037 8.17938C20.0093 8.48007 19.8953 8.77067 19.6866 8.98726H19.6799Z" fill="white"/>
</svg>
