<svg width="32" height="32" fill="none" xmlns="http://www.w3.org/2000/svg"><path d="M16 2.222c-7.84 0-14.222 5.582-14.222 12.445C1.778 21.529 8.16 27.11 16 27.11a16.003 16.003 0 004.338-.604l4.915 3.129a.888.888 0 001.37-.747v-5.982a11.555 11.555 0 003.555-8.24C30.222 7.804 23.84 2.222 16 2.222zm7.111 12.445a.889.889 0 01-.889.889H9.778a.889.889 0 010-1.778h12.444a.889.889 0 01.89.889zm-2.889 4.444a.889.889 0 01-.889.889h-6.666a.889.889 0 110-1.778h6.666a.889.889 0 01.89.89zM9.138 10.222a.889.889 0 01.889-.889h11.946a.889.889 0 110 1.778H10.027a.889.889 0 01-.89-.889z" fill="#3F3F40"/></svg>