<svg width="32" height="32" fill="none" xmlns="http://www.w3.org/2000/svg"><path d="M28.667 5.333H25.11V8a1.955 1.955 0 01-3.91 0V5.333H10.844V8a1.956 1.956 0 11-3.91 0V5.333H3.377a1.582 1.582 0 00-1.6 1.61v19.893a1.582 1.582 0 001.555 1.609h25.334a1.583 1.583 0 001.555-1.61V6.943a1.582 1.582 0 00-1.555-1.609zM8.889 23.111H7.11v-1.778h1.78v1.778zm0-4.444H7.11v-1.778h1.78v1.778zm0-4.445H7.11v-1.777h1.78v1.777zm5.333 8.89h-1.778v-1.779h1.778v1.778zm0-4.445h-1.778v-1.778h1.778v1.778zm0-4.445h-1.778v-1.777h1.778v1.777zm5.333 8.89h-1.777v-1.779h1.777v1.778zm0-4.445h-1.777v-1.778h1.777v1.778zm0-4.445h-1.777v-1.777h1.777v1.777zm5.334 8.89H23.11v-1.779h1.778v1.778zm0-4.445H23.11v-1.778h1.778v1.778zm0-4.445H23.11v-1.777h1.778v1.777z" fill="#3F3F40"/><path d="M8.889 8.889A.889.889 0 009.778 8V2.667a.889.889 0 10-1.778 0V8a.889.889 0 00.889.889zm14.222 0A.889.889 0 0024 8V2.667a.889.889 0 10-1.778 0V8a.889.889 0 00.89.889z" fill="#3F3F40"/></svg>