<svg width="32" height="32" fill="none" xmlns="http://www.w3.org/2000/svg"><path d="M28.951 13.973l-2.978-.889a10.354 10.354 0 00-.844-2.07l1.458-2.73a.542.542 0 00-.098-.64l-2.125-2.133a.543.543 0 00-.64-.098l-2.71 1.45a10.327 10.327 0 00-2.098-.89l-.89-2.942a.543.543 0 00-.524-.364h-3.004a.542.542 0 00-.516.382l-.889 2.933c-.736.217-1.445.515-2.115.89L8.31 5.431a.542.542 0 00-.64.097L5.51 7.635a.542.542 0 00-.098.64l1.44 2.666a10.337 10.337 0 00-.889 2.107l-2.942.889a.542.542 0 00-.382.515v3.005a.542.542 0 00.382.515l2.96.89c.22.72.518 1.414.89 2.07l-1.459 2.791a.542.542 0 00.098.64l2.125 2.125a.543.543 0 00.64.098l2.746-1.467c.65.35 1.335.63 2.045.835l.889 2.996a.542.542 0 00.515.382h3.005a.542.542 0 00.515-.382l.889-3.004a10.342 10.342 0 002.027-.836l2.764 1.476a.542.542 0 00.64-.098l2.125-2.125a.543.543 0 00.097-.64l-1.475-2.755c.353-.647.636-1.329.844-2.036l2.996-.889a.542.542 0 00.382-.515v-3.031a.542.542 0 00-.329-.525zM16 20.89a4.889 4.889 0 110-9.778 4.889 4.889 0 010 9.778z" fill="#3F3F40"/></svg>