<svg width="265" height="135" fill="none" xmlns="http://www.w3.org/2000/svg"><path d="M61.616 12.385a8.787 8.787 0 00-.573-2.197.996.996 0 00-.505-.623 1.04 1.04 0 00-.501-.005l-2.572.394a.986.986 0 00-.587.228c-.335.353-.005.921-.016 1.408-.011.547-.497.991-1.023 1.138a3.866 3.866 0 01-1.627-.02l-3.597-.56a5.93 5.93 0 002.721-1.818c.474-.561.725-1.61.041-1.875a1.677 1.677 0 00-.624-.05c-1.63.012-2.912-1.35-4.438-1.924a4.9 4.9 0 00-5.522 1.648l1.916.093a.85.85 0 01.51.136c.42.346-.101 1.01-.042 1.55.077.703 1.008.853 1.711.924.703.07 1.594.642 1.256 1.263-3.531 1.218-7.124-2.38-10.832-1.937-.939.112-1.825.481-2.741.713-5.597 1.418-11.384-2.365-17.102-1.564a21.7 21.7 0 00-3.733.986c-.778.256-1.59.532-2.156 1.126-.565.593-.78 1.608-.245 2.228a12.51 12.51 0 01-4.39-.418A2.46 2.46 0 018.21 15.4a26.02 26.02 0 00-6.673 2.038c.397.66.86 1.277 1.381 1.842L0 21.156c.986.249 1.496 1.595.922 2.436 1.023-.455 1.656-1.633 2.75-1.872.716-.157 1.445.137 2.124.412.68.276 1.426.543 2.13.336.703-.207 1.222-1.12.775-1.702a36.347 36.347 0 019.244-1.446c.242-.03.487.016.7.133.408.283.3.895.279 1.39-.022.497.364 1.15.807.926-.521.452-.076 1.304.424 1.78.5.475 1.102 1.132.796 1.75-.08.162-.215.291-.292.454-.227.481.134 1.042.558 1.361.425.32.946.543 1.24.986.296.442.162 1.216-.366 1.278l-1.5-1.907a3.911 3.911 0 00-1.013 1.923c1.59 1.302 1.83 3.952.498 5.518-.68.8-1.648 1.287-2.493 1.912-.844.624-1.626 1.513-1.624 2.564.004 1.816-.144 3.504.535 5.188a79.954 79.954 0 004.333 9.05c.428.768.982 1.609 1.85 1.741a107.04 107.04 0 01-2.963-8.15c.572.003 1.233.049 1.569.513.277.384.218.906.304 1.373.11.451.293.882.542 1.275l5.24 9.346c.434.775.933 1.606 1.763 1.92.53.2 1.145.163 1.633.452.383.226.641.628 1.031.841 1.104.603 2.64-.553 3.67.167.296.205.483.532.755.768.953.826 2.516.274 3.616.89.708.397 1.076 1.191 1.454 1.911.947 1.803 2.48 3.57 4.509 3.713.637.046 1.289-.076 1.912.066.623.142 1.236.687 1.136 1.319-.171 1.084.364 2.27.22 3.358-.262 1.981-3.068 2.852-3.31 4.835-.052.435.03.883-.073 1.308-.126.521-.517.945-.656 1.463-.263.982.44 1.959 1.21 2.62.772.66 1.692 1.229 2.114 2.153.446.977.227 2.117.372 3.18.316 2.324 2.32 4.047 4.383 5.157.629.339 1.304.666 1.71 1.254.532.766.479 1.776.656 2.691.434 2.242 2.32 4.09 2.373 6.373.038 1.623-.863 3.095-1.401 4.627a10.799 10.799 0 00.88 8.947c.402.681.884 1.323 1.168 2.061.509 1.317.344 2.814.812 4.145.62 1.76 2.322 3.214 2.16 5.074.772 1.607 2.479 2.396 4.195 2.875l3.075.857c.59.164 1.205.33 1.804.211.6-.119 1.172-.618 1.157-1.23-1.508-.34-3.065-.702-4.308-1.623-1.244-.92-2.095-2.559-1.624-4.033.22-.684.684-1.473.242-2.038-.253-.323-.716-.408-1.002-.703-.446-.46-.293-1.233.028-1.788.32-.555.783-1.051.912-1.679a1.753 1.753 0 00-.82-1.823 4.343 4.343 0 001.523-.978c.4-.458.585-1.163.27-1.684.935.119 2.04.177 2.653-.539.49-.572.457-1.427.263-2.156-.194-.728-.521-1.435-.531-2.189a39.78 39.78 0 006.465-.22 4.194 4.194 0 00-1.966-2.464c.972-.165 1.857-1.33 2.164-2.268.307-.937.229-1.959.039-2.927a1.573 1.573 0 01-.03-.767c.11-.349.453-.562.77-.744l4.823-2.774c.288-.144.549-.337.771-.57.505-.594.43-1.491.172-2.228-.259-.736-.673-1.428-.773-2.202-.298-2.315 2.177-3.977 3.012-6.156.328-.855.395-1.785.458-2.699.069-.981.074-2.121-.68-2.754-.72-.606-1.848-.47-2.603-1.035-.692-.517-.93-1.521-1.687-1.939-.687-.38-1.548-.138-2.311-.316-1.345-.314-2.192-1.866-3.565-2.01-.775-.08-1.652.298-2.287-.154-.56-.398-.582-1.198-.688-1.877a5.246 5.246 0 00-4.227-4.246c-.799-.128-1.668-.08-2.348-.519-.688-.445-1.004-1.278-1.544-1.895-.872-.993-2.244-1.346-3.53-1.649l-5.228-1.23c-.928-.22-2.125-.335-2.623.479-.148.31-.252.639-.31.977a3.026 3.026 0 01-2.842 2.142 3.36 3.36 0 00-1.982-1.535c-.53-.148-1.097-.165-1.603-.383a2.254 2.254 0 01-.977-3.128 2.811 2.811 0 00-.48-3.377c-.889-.799-2.175-.992-3.367-.912-.313-.682.21-1.452.772-1.948.563-.496 1.246-.983 1.369-1.724.192-1.164-1.292-2.049-2.419-1.702-1.126.348-1.846 1.444-2.321 2.524-.273.62-.505 1.272-.935 1.795-.43.523-1.123.897-1.779.73-.927-.238-1.286-1.342-1.491-2.279-.276-1.256-.553-2.53-.495-3.816.058-1.285.49-2.605 1.437-3.475 1.542-1.418 3.908-1.279 5.99-1.052-.492-.555-.37-1.49.156-2.012a2.285 2.285 0 012.07-.51c.628.13 1.193.47 1.605.96.592.723.76 1.698 1.207 2.517.447.82 1.452 1.52 2.275 1.08.71-.38.824-1.367.647-2.154-.177-.787-.553-1.553-.489-2.357.123-1.534 1.711-2.458 3.113-3.09 1.402-.632 3.007-1.481 3.229-3.005a2.74 2.74 0 01.166-.873c.156-.247.372-.45.628-.59 4.09-2.708 8.25-5.448 12.926-6.927.243-.077.272.008.52-.052.347-.2.117-.756-.216-.98-.332-.224-.777-.395-.862-.788-.062-.288.108-.571.152-.863.108-.717-.748-1.378-1.413-1.092-.375-.498.368-1.077.969-1.242a26.28 26.28 0 015.526-.904.994.994 0 01.628.107c.314.218.274.717.052 1.028-.223.31-.569.506-.846.768a2.313 2.313 0 00-.599 2.325c.976.497 2.037 1.009 3.117.834 1.08-.175 2.04-1.391 1.532-2.362-.473-.904-1.894-1.108-2.138-2.099-.286-1.16 1.354-2.192.984-3.328-.161-.498-.657-.79-1.037-1.15a3.122 3.122 0 01-.682-3.46 3.927 3.927 0 01-3.448-1.08c-.825-.834-1.483-2.149-2.654-2.111-1.075.034-2 1.29-3.005.906-.248-.094-.508-.286-.748-.173a.618.618 0 00-.279.463c-.255 1.223.184 2.616-.481 3.672-.724 1.15-2.4 1.31-3.277 2.346-.477.563-.661 1.32-1.1 1.914-.438.593-1.367.97-1.893.454a2.617 2.617 0 00-.709-3.178 6.957 6.957 0 00-1.566-.763 9.288 9.288 0 01-1.75-.976 1.724 1.724 0 01-.642-.688 1.57 1.57 0 01.044-1.088 4.45 4.45 0 013.536-2.935c.7-.095 1.515-.061 1.978-.595.245-.283.374-.71.73-.825a1.07 1.07 0 01.673.083l2.612.92c.292.133.613.186.931.155a.631.631 0 00.546-.664c-.084-.434-.751-.643-.69-1.081a.722.722 0 01.218-.368 9.34 9.34 0 017.408-2.93c.33.543-.192 1.185-.626 1.648-.434.463-.782 1.29-.258 1.646.215.11.455.164.696.157a6.071 6.071 0 011.852.563 35.71 35.71 0 012.656 1.29c-.077-.572-.15-1.176.067-1.712s.833-.956 1.372-.747c.519.2.785.889 1.338.952.738.084 1.029-1.007.72-1.683-.307-.677-.917-1.243-.968-1.985-.035-.5.156-1.12-.244-1.424a1.086 1.086 0 00-.47-.165l-9.967-1.836c-.591-.11-1.447-.026-1.473.576-.014.336.285.669.153.978-.142.33-.608.3-.947.416-.526.18-.79.806-.74 1.36a3.79 3.79 0 00.625 1.535c-.648-.272-1.63-.322-2.278-.593zm92.928 88.243c-.221.639-.242 1.391.14 1.949.428.626 1.284.86 2.025.701a3.652 3.652 0 001.88-1.21 6.486 6.486 0 001.081-1.661c.382-.944.651-1.93.802-2.937l.719-3.78c.161-.844.154-3.434-1.396-2.59-.424.23-1.405 2.05-1.849 2.566-.8.93-.906 1.833-1.327 2.96-.527 1.411-1.588 2.588-2.075 4.002zm81.899 19.342c-.507-.198-1-.433-1.473-.702a12.432 12.432 0 00-.747 4.076l3.472-1.967c.522-.296 1.114-.708 1.103-1.308a.42.42 0 00-.192-.377.471.471 0 00-.244-.028c-.514.043-.984.296-1.47.473-.485.176-1.053.269-1.499.008m19.366.993a7.582 7.582 0 00-1.114.4c-.797.406-1.339 1.177-2.056 1.712-.686.511-1.512.792-2.322 1.065-.239.211-.129.637.13.822.278.159.597.23.917.206.842.019 1.729.027 2.467-.38.416-.27.805-.579 1.162-.923.863-.721 1.899-1.197 2.924-1.656a3.366 3.366 0 001.019-.61c.645-.636.69-1.617-.239-1.833-.751-.175-2.174.966-2.888 1.197zm8.092-5.293a2.906 2.906 0 00-.886-2.376c-.01.875-.036 1.807-.528 2.531-.35.516-.899.864-1.283 1.355-.384.491-.554 1.27-.104 1.701.288.219.638.34 1 .345.896.105 1.933.164 2.561-.484.343-.354.51-.878.928-1.138.156-.065.295-.165.407-.292.173-.275-.101-.637-.41-.736-.309-.099-.65-.053-.96-.147-.311-.094-.595-.443-.436-.726m-14.672-32.12a4.02 4.02 0 01-1.437.085c-.798-.147-1.418-.749-2.062-1.242a9.09 9.09 0 00-5.316-1.86c-1.75-.033-3.516.442-5.235.11.112.626.647 1.095 1.217 1.374.57.279 1.2.419 1.773.692a4.24 4.24 0 012.05 2.135c.184.432.3.901.58 1.278.571.77 1.654.939 2.61.876 1.246-.083 2.547-.441 3.707.023.886.356 1.521 1.133 2.262 1.738.74.604 1.783 1.052 2.633.616a4.364 4.364 0 01-3.012-4.195c.834.077 3.236.048 3.106-1.371-.109-1.203-2.16-.388-2.876-.259zm-10.909 9.783c.148-.813.958-1.53.705-2.318-.174-.544-.804-.813-1.375-.826-.571-.014-1.131.157-1.702.173a8.298 8.298 0 00-1.115.016c-1.132.186-1.831 1.375-2.898 1.797-.649.258-1.379.208-2.054.386-1.532.403-2.502 1.853-3.573 3.022a12.75 12.75 0 01-6.473 3.78c-.871.202-1.808.332-2.501.898-.917.75-1.142 2.037-1.347 3.205a52.961 52.961 0 01-2.573 9.46l3.639.465c.692.089 1.408.175 2.075-.03a6.05 6.05 0 001.365-.728 13.609 13.609 0 015.324-1.924c.953-.131 1.952-.155 2.846.199.895.355 1.662 1.159 1.737 2.119a2.234 2.234 0 012.234.544c.57.582.943 1.328 1.067 2.133.096.498.192 1.095.654 1.305.376.17.809-.014 1.221-.047 1.399-.112 2.56 1.522 3.935 1.24 1.475-.301 1.837-2.513 3.276-2.956.826-.254 1.985.055 2.381-.714.349-.679-.347-1.462-.276-2.221.089-.935 1.191-1.332 2.04-1.732 2.928-1.375 4.318-5.322 2.899-8.232-.841-1.725-2.495-3.082-2.801-4.977-.235-1.457.339-3.157-.589-4.304-.472-.584-1.271-.906-1.552-1.603-.177-.438-.106-.935-.201-1.398-.096-.463-.499-.948-.956-.828-1.325.349-1.748 4.45-2.458 5.446-1.079 1.514-3.294.516-2.954-1.35zm-24.504-8.234c-.453-.127-.947-.252-1.381-.07-.435.181-.688.82-.34 1.136 2.726-.106 5.468-.212 8.17.159 3.114.427 6.195 1.485 9.322 1.174a47.359 47.359 0 00-5.438-1.264l-3.061-.586c-.821-.172-1.651-.3-2.486-.384-1.747-.145-3.069.318-4.786-.165zm2.729-9.504c-.226-.019-.507-.035-.624.16-.112.186.016.432-.044.64-.082.285-.455.358-.749.32-.293-.04-.611-.132-.871.01a.735.735 0 00-.286.84c.106.302.278.577.504.804.385.486.823.927 1.307 1.314.937.692 2.206 1.025 2.796 2.03.083.195.211.368.373.504.284.18.653.043.958-.097l1.069-.489a1.22 1.22 0 00.5-.34c.244-.332.094-.804-.111-1.161-.205-.357-.467-.727-.423-1.137.078-.73 1.016-1.01 1.402-1.635.389-.63.136-1.442.181-2.182.052-.865.595-1.99-.278-2.635-.742-.55-1.452-.042-1.984.564-1.124 1.278-1.655 2.663-3.72 2.49zm6.488-12.92c.365.7 1.126 1.117 1.524 1.798.431.739.382 1.693.85 2.41.48.734 1.446 1.123 1.716 1.959.294.912-.373 2.02.158 2.817a1.171 1.171 0 00.832.46 1.18 1.18 0 00.901-.3 1.273 1.273 0 00-.053-1.776c-.314-.287-.766-.412-1.029-.747a1.573 1.573 0 01-.267-.65 4.267 4.267 0 01.067-2.04.91.91 0 00.051-.534c-.118-.344-.584-.368-.911-.528-.742-.363-.724-1.412-.594-2.229-.087.544-2.021-.381-2.224-.689-.402-.612-.183-1.793-.263-2.469-.869.42-1.204 1.663-.758 2.518zm-19.491 10.765c-.357-.4-.895-.82-1.373-.578-.366.184-.466.69-.323 1.074.174.372.443.693.779.93.998.824 2.072 1.567 2.942 2.525 1.558 1.714 2.383 4.026 4.077 5.605.34.367.791.61 1.284.696.493.046 1.047-.27 1.104-.763.047-.406-.236-.77-.512-1.07-.658-.718-1.379-1.377-2-2.126a1.787 1.787 0 01-.511-1.069c-.003-.403.364-.825.754-.725-.474-.122-.826-.913-1.523-1.062-.582-.124-.722.236-1.415-.061-1.321-.567-2.358-2.34-3.283-3.376zM134.668 46.14c.093.496.184 1.02.021 1.498-.163.479-.675.879-1.158.732-.375-.113-.592-.491-.858-.779-1.481-1.6-4.822-.674-5.737-2.655-.374-.808-.12-1.776-.375-2.63a2.335 2.335 0 00-2.367-1.61 4.863 4.863 0 00-1.363.407 34.314 34.314 0 01-9.027 2.26 7.395 7.395 0 00-1.734.317c-1.272.461-2.141 1.642-2.76 2.847-.618 1.204-1.075 2.509-1.904 3.58-.871 1.124-2.092 1.912-3.231 2.764a3.29 3.29 0 00-1.066 1.119c-.247.507-.234 1.098-.214 1.662l.232 6.854c.03.881.068 1.794.462 2.583.492.986 1.464 1.63 2.139 2.501.688.894 1.046 2 1.014 3.128-.014.454-.059.99.294 1.275.215.14.466.212.722.208l9.259.759c1.629.133 3.434.353 4.497 1.595.502.587.905 1.43 1.674 1.493.33.027.65-.109.98-.135.832-.066 1.563.567 2.024 1.263a5.6 5.6 0 01.899 3.595c-.075.795-.321 1.567-.374 2.363-.202 3.03 2.363 5.663 2.413 8.7.029 1.786-.818 3.454-1.643 5.038 1.332 2.021.241 4.712.772 7.075.503 2.242 2.369 3.997 2.835 6.247.213 1.03.225 2.297 1.132 2.828.398.194.839.282 1.281.256a16.872 16.872 0 007.692-1.753c1.122-.557 2.284-1.389 2.48-2.628.158-.998-.348-2.115.167-2.985.607-1.025 2.161-.944 3.053-1.732 1.448-1.279.319-3.718.906-5.56.527-1.655 2.343-2.534 3.242-4.02a7.148 7.148 0 00.754-2.045c.412-1.712.669-3.457.767-5.215a31.31 31.31 0 01.235-3.195c.97-6.035 6.929-10.076 8.864-15.874.185-.554.271-1.292-.221-1.605a1.405 1.405 0 00-.936-.098l-4.269.539c-.53.067-1.092.13-1.579-.091-.487-.22-.836-.838-.577-1.306.725-1.315-.767-2.976-1.429-4.324a63.776 63.776 0 00-6.346-10.304 1.05 1.05 0 01-.278-.605l1.212.04c-.409-1.468-1.084-3.076-2.51-3.614-.803-.302-1.693-.198-2.55-.15-2.454.133-5.086-.238-7.516-.614z" fill="#EDEDED"/><path d="M142.186 13.03c.643.683 1.363 1.407 2.292 1.526 1.642.21 2.822-1.49 3.574-2.966a1.447 1.447 0 001.51 1.341c.405-.068.792-.22 1.136-.445A22.358 22.358 0 01161.3 9.742a1.148 1.148 0 01.875-1.26c.753-.15 1.432.502 1.796 1.18.363.678.59 1.463 1.167 1.97.578.508 1.696.486 1.924-.249.219-.705-.514-1.306-1.124-1.722-.609-.416-1.252-1.185-.841-1.8 3.114-.69 6.247-1.382 9.434-1.52a3.944 3.944 0 001.588-.273c.486-.24.873-.781.742-1.307a3.591 3.591 0 01-3.753-1.418c4.422-.365 9.125-.676 13.044 1.407.47 1.01-1.927 1.852-1.286 2.763.205.291.615.325.97.332 2.723.05 5.462.1 8.154-.312.984-.15 1.978-.362 2.966-.24 1.646.203 3.053 1.302 4.672 1.66.658.146 1.397.151 1.953-.232.555-.384.794-1.258.339-1.757 1.524-1.495 4.053-1.125 6.064-.409 2.011.717 3.916 1.871 6.044 2.031 1.526.114 3.073-.297 4.581-.035.948.164 1.829.586 2.756.845 1.751.49 3.604.387 5.423.41 4.64.063 9.23.977 13.542 2.695a4.027 4.027 0 011.505.89c.401.43.606 1.1.336 1.622l-4.455-.652c.42.828 1.506.969 2.387 1.254.882.286 1.797 1.261 1.267 2.022-.956-.304-1.822.652-2.304 1.533-.483.88-1.071 1.934-2.073 1.988-.897.048-1.981-.717-2.566-.034a17.519 17.519 0 012.062 3.3c.578 1.205.989 2.723.208 3.806a.983.983 0 01-.526.41c-.638.161-1.052-.62-1.509-1.093-.576-.596-1.447-.765-2.228-1.045-.78-.28-1.602-.83-1.663-1.657-.038-.515.234-.994.434-1.47a5.66 5.66 0 00.429-2.538c-.043-.699-.239-1.425-.74-1.913s-1.366-.643-1.903-.196c-.251.209-.452.542-.778.555-.576.022-1.018-.983-1.481-.64.054.365-.021.738-.214 1.054-1.382 1.203-3.506.694-5.288 1.12a9.925 9.925 0 00-2.412 1.054c-.282.12-.522.323-.69.58-.222.433.023.987.415 1.275.416.255.883.415 1.368.467 2.173.412 4.377 1.05 6.092 2.447 1.715 1.397 2.84 3.707 2.297 5.853l-4.284-4.099c.163 1.721.255 3.447.277 5.177.028.338-.019.678-.136.996-.305.676-1.133.903-1.858 1.052a1.453 1.453 0 00-1.174 1.26c-.025.205-.005.412.056.608.258.84.9 1.497 1.489 2.15.588.653 1.167 1.396 1.244 2.273.077.876-.583 1.864-1.46 1.803-.664-.046-1.157-.642-1.441-1.245-.283-.604-.452-1.277-.878-1.79-1.289-1.552-4.184-.886-5.339-2.541a2.624 2.624 0 00-.54 2.488c.538-.337 1.273-.024 1.677.465.403.49.594 1.117.911 1.667.427.741 1.108 1.399 1.168 2.253a7.29 7.29 0 00.016.969c.106.517.543.889.846 1.322.705 1.006.67 2.39.216 3.531-.455 1.143-1.271 2.097-2.079 3.022-1.412 1.617-2.853 3.223-4.527 4.565-.478.383-.988.76-1.285 1.295-.298.536-.313 1.287.144 1.695-.327.016-.914.177-1.241.194a28.957 28.957 0 01-.075-3.952c-1.291-.62-2.681 1.041-2.514 2.465.166 1.425 1.195 2.568 1.928 3.8.535.9.933 1.951.755 2.984-.179 1.034-1.1 1.987-2.144 1.896-1.659-.145-2.353-2.53-3.996-2.804a.673.673 0 00-.433.043c-.244.135-.286.461-.3.74-.067 1.365-.125 2.785.407 4.045.779 1.842 2.791 3.389 2.369 5.344-2.274-1.058-3.456-3.612-3.993-6.064-.537-2.453-.626-5.028-1.588-7.347-.731.938-2.267.163-2.935-.82-.632-.934-1.022-2.012-1.636-2.958-.614-.945-1.555-1.791-2.68-1.843-1.179-.055-2.202.756-3.102 1.522-.74.63-1.499 1.284-1.931 2.154-.63 1.267-.465 2.76-.495 4.174-.033 1.53-.357 3.142-1.398 4.262-1.04 1.12-2.961 1.51-4.109.5-.6-.526-.89-1.313-1.148-2.069a101.302 101.302 0 01-3.108-11.109c-.193.858-.946 1.964-1.664 1.459a1.49 1.49 0 01-.384-.495c-1.341-2.276-3.824-3.64-6.333-4.459-2.508-.818-5.148-1.2-7.629-2.1a19.335 19.335 0 01-3.958-1.973 3.124 3.124 0 00-.19 3.188c.55.976 1.796 1.54 2.862 1.2.551-.177 1.016-.56 1.562-.75.547-.188 1.281-.096 1.52.432.229.505-.117 1.115.054 1.642.262.803 1.471.865 1.893 1.595.315.544.056 1.265-.393 1.704-.449.438-1.048.679-1.597.984-1.779.99-3.044 2.681-4.598 3.997-1.555 1.315-3.748 2.276-5.601 1.432.442-2.24-2.222-3.883-2.712-6.112-.162-.734-.078-1.514-.308-2.229-.334-1.035-1.251-1.746-2.003-2.53a9.943 9.943 0 01-2.722-7.23c.041-.92.21-1.857 0-2.755-.21-.898-.952-1.767-1.872-1.726-2.101.093-4.749.25-5.851-1.544-.394-.64-.565-1.578.004-2.069.401-.345.994-.313 1.521-.261l4.734.466c1.108.11 2.305.2 3.255-.38.95-.58 1.362-2.119.482-2.8-.643-.499-1.795-.472-1.981-1.264-.156-.66.573-1.409.179-1.96-.282-.396-.917-.286-1.302.01-.385.297-.664.73-1.095.955-.755.394-1.658.019-2.471-.236-.813-.254-1.902-.276-2.297.48-.441.845.391 1.953-.046 2.8-.579 1.12-2.538.483-3.351 1.446-.932 1.106.635 2.754.32 4.166a2.584 2.584 0 01-2.551-.143 2.482 2.482 0 01-1.071-2.311c.077-.635.408-1.284.187-1.884-.18-.486-.666-.775-1.119-1.025l-4.601-2.546c-.427.794.113 1.777.788 2.373.676.596 1.522 1.045 1.965 1.83a2.401 2.401 0 01-.902 3.165.551.551 0 01-.456.08.643.643 0 01-.296-.399c-.812-2.08-2.03-4.13-3.979-5.218-1.949-1.086-4.749-.863-6.027.968-.303.435-.507.93-.771 1.39-1.405 2.442-4.417 3.599-7.23 3.523-.276.015-.55-.05-.789-.185-.455-.315-.434-.982-.365-1.531l.296-2.33c.059-.468.145-.985.515-1.277.521-.411 1.273-.152 1.937-.161a2.457 2.457 0 002.228-1.722 2.772 2.772 0 00-.771-2.755c-.304-.286-.712-.645-.551-1.031a.841.841 0 01.597-.403c1.192-.346 2.452-.437 3.624-.846 1.173-.41 2.31-1.246 2.588-2.458.085-.372.123-.821.457-1.005.167-.071.346-.108.528-.108a2.57 2.57 0 002.204-2.683c.562-.393 1.349-.104 1.893.314.543.418 1.023.971 1.685 1.151 1.232.336 2.424-.757 3.701-.762.537-.002 1.094.188 1.599.006.512-.185.818-.696 1.212-1.073.393-.377 1.083-.607 1.446-.2l-.309-2.294a4.496 4.496 0 003.664-.663l-3.996-1.352a.87.87 0 01-.374-.2c-.29-.314-.002-.802.234-1.158.566-.852.66-2.255-.269-2.68-.634-.289-1.363.059-1.971.399l-2.917 1.628c-.093.555.585.87 1.005 1.244a1.69 1.69 0 01-1.099 2.95 2.106 2.106 0 01.375 1.782l-1.962.142a.85.85 0 01-.637-.125c-.21-.186-.181-.513-.23-.79-.117-.668-.771-1.137-1.438-1.257-.667-.12-1.349.034-2.009.186a1.199 1.199 0 01-.864-.02.865.865 0 01-.342-.432c-.289-.703-.018-1.529.446-2.13.465-.6 1.102-1.04 1.674-1.54a9.763 9.763 0 002.899-4.504c1.081-.453 2.199-1.069 3.279-1.522a10.026 10.026 0 015.394-1.047l3.658.07c1.084.021 2.196.048 3.198.461 1.001.414 1.882 1.308 1.951 2.39a.734.734 0 01-.235.671.863.863 0 01-.462.105c-1.011.035-1.441.287-2.452.323zM53.664 3.914a3.224 3.224 0 00-3.545 1.063c-.164.216-.302.515-.165.749.197.336.7.203 1.07.083a2.687 2.687 0 011.687-.04c.348.119.659.33 1.008.445a1.013 1.013 0 001.034-.151c.24-.245.254-.625.255-.968a.78.78 0 00-.198-.639 1.014 1.014 0 00-.458-.136 1.577 1.577 0 01-.923-.54m3.829-.868a.82.82 0 00-.794 1.158 3.32 3.32 0 001.327.086 1.134 1.134 0 00.927-.85 2.132 2.132 0 01-1.512-.29m12.108-1.777c-1.175.25-2.317.639-3.402 1.157a2.556 2.556 0 011.633 2.57c-.046.21-.04.429.015.636.125.304.487.417.806.495.572.175 1.169.25 1.766.226a1.797 1.797 0 001.462-.895c.087-.245.188-.486.304-.72.763-1.163 3.03.244 3.85-.88.288-.397.261-.993.637-1.307.195-.137.42-.223.657-.25a46.027 46.027 0 014.984-.711c.793-.07 1.827-.355 1.833-1.151a13.792 13.792 0 00-8.808 1.186c-.981.492-2.28 1.528-3.226.875-.354-.244-.336-.902-.824-1.177-.498-.281-1.158-.167-1.687-.054z" fill="#EDEDED"/><path d="M79.08 3.068l1.402.27a1.814 1.814 0 00-1.793 1.21 1.817 1.817 0 00-.097.76c1.313.44 2.744.012 4.127.07 1.383.059 2.992 1.048 2.755 2.413-.071.413-.31.826-.185 1.226.087.28.334.48.473.738.29.539.058 1.22-.309 1.709-.367.49-.86.88-1.182 1.4-.801 1.294-.346 2.966.131 4.411.138.546.393 1.056.747 1.494.707.752 1.86.818 2.891.833.751.01 1.612-.026 2.087-.609.62-.76.186-1.948.595-2.84.37-.811 1.315-1.16 2.17-1.406 1.569-.452 3.167-.836 4.65-1.519 1.84-.848 3.56-2.169 5.583-2.278.568-.03 1.15.037 1.696-.119.547-.156 1.066-.629 1.025-1.197-.035-.485-.445-.84-.765-1.206-.321-.366-.572-.928-.278-1.315l5.303-.992c-.376-1.026-.668-2.377.195-3.044.312-.241.729-.337.995-.629.452-.496.224-1.351-.298-1.773-.522-.422-1.228-.52-1.896-.576-2.326-.193-4.664-.066-6.994.062l-13.662.75c-.917.05-1.976-.026-2.817.287-.711.265-1.218.752-2.032.923-1.502.315-3.156.102-4.516.947zm25.113 11.094a.566.566 0 00-.408.093.518.518 0 00-.132.315 2.082 2.082 0 00.301 1.49 1.455 1.455 0 001.333.639c.632-.08 1.097-.62 1.677-.883.895-.405 4.693-1.037 2.065-2.458-.905-.49-1.49-.057-2.204.265a5.01 5.01 0 01-2.632.54zm23.014-11.897c-.307.126-.564.35-.73.636a.64.64 0 00.24.852c.115.041.236.06.358.057l1.248.037c.529.016 1.191.129 1.334.64.106.38-.131.868.155 1.14a.8.8 0 00.424.165c.411.106.84.12 1.257.04.907-.243.431-.798.716-1.292.438-.756.362-.298 1.133-.731.569-.32 1.304-.9.829-1.716-.826-1.417-5.745-.437-6.964.172zm24.621-.713l-.724.097c-1.633.218-3.276.439-4.849.93.681.27 1.395.445 2.123.522.401.02.8.076 1.19.169.695.207 1.395.742 2.067.468.416-.17.552-.604.896-.834.239-.159 1.142-.416 1.243-.576.816-1.296-1.318-.86-1.946-.776zm3.181 3.297c-.967.542-1.865 1.2-2.673 1.96-.34.32-.688.719-.657 1.186.041.62.701.98 1.273 1.222l2.315.982c.281-.397.024-.944-.266-1.334-.29-.39-.635-.84-.507-1.309.146-.535.798-.717 1.344-.81.89-.15 3.291-.137 3.003-1.574-.34-1.692-2.938-.823-3.832-.323zm78.813 29.825a10.985 10.985 0 01-1.116-.4c-.981-.294-2.278.428-2.148 1.444.087.676.715 1.132 1.062 1.718.515.87.377 1.972.107 2.945a2.29 2.29 0 01-.371.838 2.84 2.84 0 01-.879.633 11.755 11.755 0 00-3.44 2.926.842.842 0 00-.207.392c-.047.344.297.594.492.88.433.636.12 1.492.163 2.261a.647.647 0 00.269.561c.261.133.57-.093.712-.35.469-.85.115-2.217.996-2.628.167-.078.368-.11.48-.257.176-.232.006-.576.095-.854.134-.417.704-.436 1.141-.417a6.474 6.474 0 002.225-.297c.282-.067.538-.216.736-.427.263-.329.24-.797.187-1.215a16.472 16.472 0 00-1.943-5.936c.774.1 1.615.185 2.283-.219.374-.226.822-.902.636-1.362-.293-.727-.822-.115-1.48-.236zM113.025 24.511a1.075 1.075 0 00.292-1.078 2.002 2.002 0 00-2.074.392 3.5 3.5 0 00-.556.736c-.48.785-.906 1.723-.627 2.6a.743.743 0 00.338.463c.125.05.259.072.394.062.529 0 1.058-.033 1.584-.097.323-.04.698-.131.823-.432.164-.395-.233-.843-.118-1.255a1.38 1.38 0 01.338-.485.644.644 0 00.2-.538c-.047-.193-.343-.303-.449-.135m2.601-3.798a4.429 4.429 0 00-1.436-.09.626.626 0 00-.306.07.511.511 0 00-.189.273 1.362 1.362 0 00.79 1.664c.173.04.338.106.49.197.406.316.147.96.224 1.47.086.57.639 1.05.537 1.62-.079.448-.558.802-.481 1.251.081.47.677.611 1.151.649.276.048.559.016.816-.094a1.26 1.26 0 00.514-.746 4.78 4.78 0 00.241-1.8 1.71 1.71 0 00-.203-.795 4.387 4.387 0 00-.474-.543c-.909-1.06.048-2.64-1.674-3.126z" fill="#EDEDED"/><path d="M154.117 2.346a7.938 7.938 0 00-7.93 7.896c0 3.144 1.764 5.776 3.056 7.694l.236.35a67.011 67.011 0 004.133 5.386l.512.599.511-.6a67.082 67.082 0 004.133-5.384l.236-.357c1.286-1.919 3.049-4.544 3.049-7.688a7.934 7.934 0 00-7.936-7.896zm0 11.444a4.419 4.419 0 01-4.08-2.726 4.413 4.413 0 01.957-4.813 4.42 4.42 0 014.813-.957 4.412 4.412 0 012.726 4.08 4.417 4.417 0 01-4.416 4.416z" fill="#0D47A1"/><path d="M154.117 11.885a2.51 2.51 0 100-5.022 2.51 2.51 0 000 5.022z" fill="#0D47A1"/></svg>