<svg width="265" height="135" viewBox="0 0 265 135" fill="none" xmlns="http://www.w3.org/2000/svg">
<path d="M61.616 12.385C61.5208 11.6309 61.3281 10.8924 61.0429 10.188C61.0065 10.0548 60.9428 9.93065 60.8559 9.82344C60.769 9.71624 60.6607 9.62833 60.538 9.56533C60.3739 9.52262 60.2019 9.5207 60.037 9.55972L57.4648 9.95381C57.2495 9.96365 57.0434 10.0439 56.8779 10.1821C56.5429 10.5349 56.8728 11.103 56.8625 11.5897C56.851 12.137 56.3654 12.5812 55.8387 12.7281C55.3012 12.8369 54.7467 12.83 54.2119 12.708L50.6153 12.1483C51.6745 11.8097 52.6174 11.1797 53.3362 10.3302C53.8095 9.76879 54.0613 8.72062 53.3773 8.45475C53.174 8.3989 52.9621 8.38186 52.7526 8.40452C51.123 8.41721 49.8407 7.05489 48.3152 6.48112C47.3388 6.13763 46.2789 6.11208 45.2872 6.40811C44.2954 6.70414 43.4225 7.3066 42.7934 8.12933L44.7094 8.22183C44.8896 8.21186 45.0684 8.25959 45.2197 8.35811C45.6396 8.70355 45.1176 9.36707 45.1767 9.90799C45.2536 10.6108 46.1855 10.7608 46.888 10.8319C47.5905 10.9029 48.4817 11.4744 48.1438 12.0952C44.613 13.3129 41.02 9.71477 37.3119 10.1577C36.3734 10.2698 35.4872 10.639 34.5709 10.8711C28.9736 12.2891 23.187 8.50568 17.469 9.30694C16.1979 9.52392 14.9485 9.85385 13.7358 10.2928C12.9576 10.5487 12.1459 10.8252 11.5804 11.4185C11.0149 12.0119 10.7997 13.0267 11.3354 13.6471C9.85895 13.7689 8.37262 13.6274 6.9455 13.2293C7.33142 13.4441 7.65247 13.7589 7.87496 14.1408C8.09744 14.5227 8.21315 14.9575 8.20994 15.3996C5.90461 15.776 3.66032 16.4612 1.53745 17.4368C1.93365 18.0965 2.39643 18.7137 2.91849 19.2789L0 21.1563C0.986005 21.405 1.49579 22.7512 0.922398 23.592C1.94477 23.1366 2.57839 21.9585 3.67165 21.7197C4.38789 21.5632 5.11667 21.8566 5.79612 22.1321C6.47557 22.4077 7.22236 22.675 7.92574 22.4681C8.62912 22.2613 9.14793 21.3481 8.70098 20.7663C11.7074 19.8879 14.8145 19.4019 17.9452 19.3201C18.1867 19.2898 18.4317 19.3363 18.6453 19.4532C19.0529 19.7363 18.9456 20.3478 18.9237 20.8439C18.9017 21.3401 19.2879 21.9922 19.7308 21.7686C19.2098 22.221 19.6552 23.0727 20.1551 23.5484C20.655 24.0241 21.2575 24.6806 20.9515 25.2994C20.8716 25.4609 20.7361 25.5902 20.6593 25.7532C20.4324 26.2342 20.7926 26.7951 21.2174 27.1145C21.6423 27.434 22.1627 27.6573 22.4578 28.0997C22.7529 28.5421 22.6189 29.3164 22.0912 29.3782L20.5912 27.4712C20.0787 28.0033 19.7274 28.67 19.578 29.3939C21.1685 30.6958 21.4078 33.3458 20.0762 34.9123C19.3957 35.7128 18.4279 36.1992 17.5833 36.8236C16.7387 37.448 15.9572 38.3371 15.9593 39.3883C15.963 41.2044 15.8148 42.8917 16.4945 44.5755C17.7478 47.6803 19.1948 50.7031 20.8269 53.6261C21.2555 54.3936 21.8095 55.2349 22.6777 55.367C21.5804 52.6922 20.5926 49.9758 19.7143 47.2178C20.2864 47.22 20.9474 47.2655 21.2828 47.7296C21.5605 48.1138 21.5008 48.6363 21.5871 49.1026C21.6969 49.5545 21.8799 49.9853 22.1288 50.3778L27.3688 59.7239C27.8032 60.4986 28.3015 61.3303 29.1317 61.644C29.6625 61.8446 30.2766 61.8068 30.7651 62.0957C31.1481 62.322 31.406 62.7239 31.7964 62.9371C32.9002 63.5401 34.4352 62.3837 35.4668 63.1036C35.7617 63.3094 35.9493 63.6364 36.2211 63.8721C37.1739 64.6982 38.7367 64.1456 39.8366 64.7618C40.5454 65.159 40.9127 65.9533 41.2908 66.6732C42.2378 68.4763 43.7702 70.2428 45.7998 70.3864C46.4373 70.4315 47.0885 70.3104 47.7117 70.4524C48.3349 70.5944 48.9483 71.139 48.8483 71.771C48.6768 72.8546 49.2115 74.0411 49.0679 75.1288C48.8063 77.11 45.9998 77.9806 45.7587 79.9644C45.7059 80.3987 45.7885 80.847 45.6852 81.2722C45.5586 81.7933 45.1678 82.2175 45.0289 82.7355C44.7658 83.717 45.4681 84.6938 46.2396 85.3541C47.0111 86.0145 47.9314 86.5839 48.3532 87.5082C48.799 88.4852 48.58 89.6245 48.725 90.6888C49.0415 93.0123 51.0458 94.7348 53.1085 95.8455C53.737 96.1839 54.4118 96.5115 54.8186 97.0985C55.3495 97.8647 55.2966 98.8748 55.4739 99.7903C55.9081 102.032 57.7931 103.88 57.8466 106.163C57.8847 107.786 56.9837 109.258 56.4456 110.79C55.941 112.257 55.7584 113.815 55.9103 115.36C56.0621 116.904 56.5448 118.397 57.3254 119.737C57.728 120.418 58.2096 121.06 58.4944 121.798C59.0026 123.115 58.8377 124.612 59.3063 125.943C59.9258 127.703 61.6282 129.157 61.4652 131.017C62.2381 132.624 63.9447 133.413 65.6608 133.892L68.7364 134.749C69.3253 134.913 69.9407 135.079 70.5404 134.96C71.1401 134.841 71.7123 134.342 71.6969 133.73C70.1886 133.39 68.632 133.028 67.3887 132.107C66.1454 131.187 65.2937 129.548 65.7654 128.074C65.9842 127.39 66.4495 126.601 66.0071 126.036C65.7538 125.713 65.2906 125.628 65.0049 125.333C64.5592 124.873 64.7123 124.1 65.0327 123.545C65.3531 122.99 65.8162 122.494 65.9454 121.866C66.0107 121.514 65.9671 121.152 65.8205 120.826C65.6739 120.5 65.4314 120.227 65.1254 120.043C65.6957 119.828 66.2143 119.494 66.6477 119.065C67.048 118.607 67.233 117.902 66.9181 117.381C67.8532 117.5 68.9573 117.558 69.5712 116.842C70.0615 116.27 70.0278 115.415 69.8341 114.686C69.6404 113.958 69.313 113.251 69.3028 112.497C71.4601 112.599 73.6222 112.526 75.7677 112.277C75.4574 111.231 74.7524 110.347 73.8021 109.813C74.7738 109.648 75.659 108.483 75.966 107.545C76.273 106.608 76.1947 105.586 76.005 104.618C75.9321 104.369 75.9221 104.105 75.9759 103.851C76.0853 103.502 76.4279 103.289 76.7448 103.107L81.5678 100.333C81.8556 100.189 82.1165 99.9961 82.3391 99.7632C82.8444 99.1689 82.7695 98.2717 82.5108 97.5355C82.2521 96.7992 81.8376 96.1068 81.738 95.3327C81.4399 93.0176 83.915 91.3565 84.7503 89.1771C85.0781 88.3219 85.1449 87.3922 85.2084 86.4784C85.2765 85.4968 85.2816 84.3567 84.5289 83.7242C83.8074 83.1179 82.6801 83.2531 81.9251 82.6892C81.2329 82.1721 80.9941 81.1679 80.2379 80.7502C79.5512 80.3709 78.6902 80.6122 77.9265 80.4338C76.5817 80.1197 75.7355 78.5678 74.3621 78.4241C73.5872 78.3431 72.7103 78.7224 72.0752 78.2705C71.5155 77.8724 71.4931 77.0721 71.3866 76.393C71.1999 75.3377 70.6947 74.3649 69.9391 73.6059C69.1834 72.8468 68.2135 72.3378 67.1601 72.1475C66.3612 72.0192 65.4916 72.0679 64.8119 71.6283C64.1237 71.1831 63.8081 70.3497 63.2675 69.7332C62.3962 68.7397 61.024 68.3867 59.7385 68.0841L54.5097 66.8533C53.5815 66.6348 52.385 66.5189 51.8869 67.333C51.7395 67.643 51.6351 67.9717 51.5767 68.3101C51.39 68.9221 51.0144 69.4591 50.5038 69.8439C49.9932 70.2287 49.3739 70.4415 48.7349 70.4518C48.2967 69.7033 47.5868 69.1533 46.7532 68.9165C46.223 68.7685 45.6555 68.752 45.1498 68.5344C44.8744 68.3998 44.6294 68.2103 44.4296 67.9776C44.2299 67.7449 44.0797 67.4738 43.9882 67.181C43.8967 66.8881 43.8659 66.5796 43.8976 66.2744C43.9293 65.9692 44.0228 65.6737 44.1726 65.406C44.474 64.8686 44.5904 64.2467 44.5039 63.6365C44.4173 63.0262 44.1325 62.4614 43.6935 62.0293C42.8043 61.23 41.518 61.0369 40.3257 61.1168C40.0134 60.4346 40.5355 59.6648 41.0982 59.169C41.6609 58.6732 42.3441 58.1858 42.4666 57.4454C42.6594 56.2807 41.1753 55.3961 40.0484 55.7434C38.9216 56.0907 38.2024 57.1866 37.7269 58.2669C37.4542 58.8867 37.2222 59.5394 36.792 60.0621C36.3617 60.5847 35.6688 60.9589 35.0134 60.7912C34.0855 60.5537 33.7271 59.45 33.5218 58.5133C33.2463 57.2567 32.9692 55.9826 33.0269 54.6973C33.0846 53.4121 33.5173 52.0924 34.4639 51.2223C36.0063 49.8045 38.3724 49.9435 40.454 50.1697C39.9622 49.6148 40.0838 48.6798 40.6099 48.1576C40.8877 47.9105 41.2215 47.7349 41.5823 47.6461C41.9432 47.5574 42.3202 47.5581 42.6807 47.6482C43.308 47.7789 43.873 48.1172 44.2849 48.6086C44.8765 49.3307 45.0447 50.3057 45.4918 51.1254C45.9389 51.9451 46.9443 52.6442 47.7672 52.2044C48.4779 51.8246 48.5908 50.8378 48.4139 50.0507C48.237 49.2637 47.8612 48.4984 47.9253 47.6943C48.0476 46.1599 49.6361 45.2363 51.0379 44.6044C52.4396 43.9725 54.0448 43.1226 54.2668 41.5995C54.2744 41.3012 54.3306 41.0063 54.4332 40.7262C54.5886 40.4788 54.8047 40.2754 55.0608 40.1352C59.1519 37.428 63.3111 34.6878 67.987 33.2086C68.2303 33.1316 68.2588 33.2172 68.5068 33.1569C68.8537 32.9561 68.6238 32.4006 68.2911 32.1768C67.9585 31.9531 67.5138 31.7815 67.4294 31.3892C67.3674 31.1008 67.5371 30.8177 67.5811 30.526C67.6895 29.8093 66.8332 29.1476 66.1682 29.4341C65.7926 28.936 66.5358 28.3573 67.1368 28.1916C68.9414 27.6944 70.7938 27.3914 72.6626 27.2878C72.8783 27.2535 73.0992 27.2911 73.2914 27.3949C73.6053 27.6126 73.5652 28.1119 73.3427 28.4227C73.1203 28.7334 72.7742 28.9285 72.497 29.1914C72.1942 29.4869 71.9782 29.8599 71.8726 30.2699C71.767 30.6798 71.7759 31.1109 71.8983 31.5162C72.8739 32.0131 73.9345 32.5246 75.0151 32.3495C76.0956 32.1745 77.0547 30.9588 76.5468 29.988C76.0738 29.0839 74.6531 28.88 74.4088 27.8891C74.1228 26.729 75.7629 25.6971 75.3935 24.5609C75.2316 24.0632 74.7363 23.7702 74.3561 23.4109C73.9072 22.9703 73.6018 22.4041 73.4801 21.7866C73.3584 21.1691 73.426 20.5292 73.6741 19.9509C73.055 20.0599 72.4187 20.0188 71.8188 19.8308C71.2188 19.6428 70.6726 19.3134 70.226 18.8704C69.4012 18.037 68.7432 16.7223 67.572 16.7596C66.4972 16.7938 65.5715 18.0493 64.5666 17.6662C64.3193 17.572 64.0587 17.3802 63.8191 17.4926C63.7406 17.5436 63.6747 17.6119 63.6264 17.6921C63.5781 17.7724 63.5487 17.8627 63.5403 17.956C63.2849 19.1786 63.7242 20.5716 63.0588 21.628C62.3346 22.7777 60.6596 22.9371 59.7817 23.9737C59.3051 24.5365 59.1205 25.2948 58.6824 25.8881C58.2444 26.4814 57.3146 26.8586 56.789 26.3416C57.0473 25.8097 57.1179 25.2059 56.9891 24.6287C56.8603 24.0516 56.5398 23.5352 56.08 23.1641C55.5919 22.8452 55.0658 22.589 54.514 22.4014C53.8974 22.14 53.3109 21.8127 52.7646 21.4251C52.4909 21.2598 52.2685 21.0216 52.1223 20.737C52.0067 20.3807 52.0222 19.9947 52.1662 19.6489C52.4328 18.8837 52.9031 18.2059 53.5262 17.6887C54.1494 17.1715 54.9018 16.8346 55.7023 16.7143C56.4022 16.619 57.2168 16.6525 57.68 16.1186C57.9251 15.836 58.0537 15.4088 58.4095 15.2941C58.637 15.2483 58.8733 15.2774 59.0829 15.3771L61.6954 16.2979C61.9869 16.4296 62.3077 16.4828 62.6261 16.452C62.7839 16.4307 62.9279 16.3504 63.0291 16.2273C63.1303 16.1041 63.1812 15.9472 63.1717 15.788C63.0882 15.3536 62.4206 15.1452 62.4814 14.707C62.5154 14.565 62.5916 14.4367 62.7 14.339C63.6428 13.3342 64.7959 12.5506 66.0765 12.0442C67.3572 11.5378 68.7339 11.3212 70.1079 11.4099C70.4377 11.9521 69.9162 12.5942 69.4823 13.0572C69.0483 13.5201 68.6996 14.3472 69.2244 14.7035C69.4394 14.8134 69.6787 14.8673 69.92 14.8603C70.5632 14.9475 71.1883 15.1374 71.7715 15.4226C72.6742 15.816 73.5597 16.2464 74.4278 16.7139C74.3511 16.1408 74.2779 15.537 74.4949 15.0011C74.7118 14.4652 75.3284 14.0449 75.867 14.2536C76.386 14.4547 76.6522 15.1428 77.2052 15.2059C77.9429 15.29 78.2339 14.1988 77.9258 13.5225C77.6176 12.8462 77.0077 12.2799 76.9568 11.5383C76.9224 11.0379 77.1126 10.4174 76.7134 10.1144C76.5714 10.0235 76.4102 9.96688 76.2425 9.9491L66.2764 8.11278C65.6845 8.00374 64.8295 8.08731 64.8032 8.68927C64.7886 9.02527 65.0883 9.35768 64.9556 9.66661C64.8139 9.99634 64.3484 9.96619 64.0093 10.0828C63.4833 10.2638 63.2193 10.8892 63.2698 11.4439C63.3623 11.995 63.5755 12.5188 63.894 12.9777C63.2458 12.7063 62.2643 12.6564 61.616 12.385Z" fill="#EDEDED"/>
<path d="M154.544 100.628C154.323 101.267 154.302 102.019 154.684 102.577C155.112 103.203 155.968 103.437 156.709 103.278C157.447 103.081 158.104 102.658 158.589 102.068C159.032 101.573 159.397 101.013 159.67 100.407C160.052 99.463 160.321 98.4773 160.472 97.4702L161.191 93.6904C161.352 92.8456 161.345 90.2557 159.795 91.0995C159.371 91.33 158.39 93.1501 157.946 93.6662C157.146 94.5964 157.04 95.499 156.619 96.6259C156.092 98.0374 155.031 99.2138 154.544 100.628Z" fill="#EDEDED"/>
<path d="M236.443 119.97C235.936 119.772 235.443 119.537 234.97 119.268C234.495 120.575 234.242 121.953 234.223 123.344L237.695 121.377C238.217 121.081 238.809 120.669 238.798 120.069C238.802 119.994 238.787 119.92 238.753 119.854C238.72 119.788 238.669 119.732 238.606 119.692C238.529 119.661 238.445 119.652 238.362 119.664C237.848 119.707 237.378 119.96 236.892 120.137C236.407 120.313 235.839 120.406 235.393 120.145" fill="#EDEDED"/>
<path d="M254.759 121.138C254.378 121.242 254.005 121.376 253.645 121.538C252.848 121.944 252.306 122.715 251.589 123.25C250.903 123.761 250.077 124.042 249.267 124.315C249.028 124.526 249.138 124.952 249.397 125.137C249.675 125.296 249.994 125.367 250.314 125.343C251.156 125.362 252.043 125.37 252.781 124.963C253.197 124.693 253.586 124.384 253.943 124.04C254.806 123.319 255.842 122.843 256.867 122.384C257.24 122.243 257.585 122.036 257.886 121.774C258.531 121.138 258.576 120.157 257.647 119.941C256.896 119.766 255.473 120.907 254.759 121.138Z" fill="#EDEDED"/>
<path d="M262.851 115.845C262.893 115.408 262.834 114.966 262.681 114.555C262.527 114.143 262.283 113.772 261.965 113.469C261.955 114.344 261.929 115.276 261.437 116C261.087 116.516 260.538 116.864 260.154 117.355C259.77 117.846 259.6 118.625 260.05 119.056C260.338 119.275 260.688 119.396 261.05 119.401C261.946 119.506 262.983 119.565 263.611 118.917C263.954 118.563 264.121 118.039 264.539 117.779C264.695 117.714 264.834 117.614 264.946 117.487C265.119 117.212 264.845 116.85 264.536 116.751C264.227 116.652 263.886 116.698 263.576 116.604C263.265 116.51 262.981 116.161 263.14 115.878" fill="#EDEDED"/>
<path d="M248.468 83.7584C247.998 83.8729 247.511 83.9016 247.031 83.8432C246.233 83.6964 245.613 83.0945 244.969 82.6009C243.438 81.4338 241.577 80.7827 239.653 80.7413C237.903 80.7082 236.137 81.183 234.418 80.8517C234.53 81.4771 235.065 81.9461 235.635 82.2249C236.205 82.5037 236.835 82.6439 237.408 82.917C238.325 83.3588 239.053 84.1169 239.458 85.0524C239.642 85.4837 239.758 85.9531 240.038 86.3297C240.609 87.0994 241.692 87.2685 242.648 87.2055C243.894 87.1234 245.195 86.7646 246.355 87.2295C247.241 87.5851 247.876 88.3623 248.617 88.9666C249.357 89.5709 250.4 90.0195 251.25 89.5834C250.367 89.2971 249.599 88.7356 249.057 87.981C248.515 87.2263 248.228 86.318 248.238 85.3885C249.072 85.4653 251.474 85.4356 251.344 84.0167C251.235 82.8143 249.184 83.6286 248.468 83.7584Z" fill="#EDEDED"/>
<path d="M237.559 93.5415C237.707 92.7283 238.517 92.0102 238.264 91.2232C238.09 90.6789 237.46 90.4102 236.889 90.3968C236.318 90.3834 235.758 90.5536 235.187 90.5696C234.815 90.5499 234.443 90.5552 234.072 90.5855C232.94 90.7719 232.241 91.9608 231.174 92.3835C230.525 92.6405 229.795 92.5914 229.12 92.7691C227.588 93.1725 226.618 94.6225 225.547 95.7915C223.816 97.672 221.561 98.9887 219.074 99.5712C218.203 99.7732 217.266 99.9025 216.573 100.469C215.656 101.219 215.431 102.506 215.226 103.674C214.663 106.9 213.801 110.067 212.653 113.134L216.292 113.599C216.984 113.688 217.7 113.774 218.367 113.569C218.851 113.386 219.31 113.141 219.732 112.841C221.353 111.833 223.167 111.178 225.056 110.917C226.009 110.786 227.008 110.762 227.902 111.116C228.797 111.471 229.564 112.275 229.639 113.235C230.026 113.115 230.438 113.102 230.831 113.198C231.225 113.294 231.585 113.495 231.873 113.779C232.443 114.361 232.816 115.107 232.94 115.912C233.036 116.41 233.132 117.007 233.594 117.217C233.97 117.387 234.403 117.203 234.815 117.17C236.214 117.058 237.375 118.692 238.75 118.41C240.225 118.109 240.587 115.897 242.026 115.454C242.852 115.2 244.011 115.509 244.407 114.74C244.756 114.061 244.06 113.278 244.131 112.519C244.22 111.584 245.322 111.187 246.171 110.787C249.099 109.412 250.489 105.465 249.07 102.555C248.229 100.83 246.575 99.4727 246.269 97.5782C246.034 96.1207 246.608 94.421 245.68 93.2737C245.208 92.69 244.409 92.3679 244.128 91.6715C243.951 91.2331 244.022 90.7357 243.927 90.2727C243.831 89.8096 243.428 89.3252 242.971 89.4452C241.646 89.7937 241.223 93.8942 240.513 94.8905C239.434 96.405 237.219 95.4074 237.559 93.5415Z" fill="#EDEDED"/>
<path d="M213.055 85.3074C212.602 85.1802 212.108 85.0549 211.674 85.2367C211.239 85.4184 210.986 86.0566 211.334 86.3732C214.06 86.2669 216.802 86.1613 219.504 86.5319C222.618 86.959 225.699 88.0167 228.826 87.7055C227.04 87.1778 225.224 86.7559 223.388 86.442L220.327 85.8564C219.506 85.6842 218.676 85.5558 217.841 85.4718C216.094 85.3273 214.772 85.7895 213.055 85.3074Z" fill="#EDEDED"/>
<path d="M215.784 75.803C215.558 75.7841 215.277 75.7678 215.16 75.9626C215.048 76.1487 215.176 76.3946 215.116 76.6033C215.034 76.8884 214.661 76.9612 214.367 76.9224C214.074 76.8836 213.756 76.7907 213.496 76.9325C213.363 77.0228 213.264 77.1535 213.213 77.3051C213.161 77.4566 213.16 77.6208 213.21 77.773C213.316 78.0752 213.488 78.3499 213.714 78.5774C214.099 79.0631 214.537 79.5036 215.021 79.8906C215.958 80.5829 217.227 80.9165 217.817 81.9216C217.9 82.1164 218.028 82.2888 218.19 82.4248C218.474 82.6044 218.843 82.4678 219.148 82.3282L220.217 81.8392C220.41 81.7697 220.581 81.6527 220.717 81.4989C220.961 81.1671 220.811 80.6954 220.606 80.3379C220.401 79.9805 220.139 79.6106 220.183 79.2008C220.261 78.4702 221.199 78.1907 221.585 77.5655C221.974 76.9354 221.721 76.1235 221.766 75.384C221.818 74.5193 222.361 73.3945 221.488 72.7485C220.746 72.1994 220.036 72.7067 219.504 73.3129C218.38 74.5913 217.849 75.9757 215.784 75.803Z" fill="#EDEDED"/>
<path d="M222.272 62.8829C222.637 63.5826 223.398 64.0001 223.796 64.6815C224.227 65.42 224.178 66.3742 224.646 67.0901C225.126 67.8245 226.092 68.2144 226.362 69.0498C226.656 69.9618 225.989 71.0702 226.52 71.8671C226.619 71.9974 226.744 72.1056 226.888 72.1849C227.031 72.2642 227.189 72.3129 227.352 72.3279C227.514 72.3429 227.679 72.3238 227.834 72.2719C227.989 72.2201 228.132 72.1365 228.253 72.0265C228.477 71.7821 228.597 71.4598 228.587 71.1281C228.577 70.7965 228.439 70.4818 228.2 70.2511C227.886 69.9637 227.434 69.8395 227.171 69.5039C227.034 69.3102 226.943 69.0879 226.904 68.8538C226.761 68.1784 226.784 67.4784 226.971 66.8139C227.041 66.6453 227.059 66.4593 227.022 66.2804C226.904 65.936 226.438 65.9116 226.111 65.7518C225.369 65.389 225.387 64.34 225.517 63.5231C225.43 64.067 223.496 63.142 223.293 62.834C222.891 62.222 223.11 61.0415 223.03 60.3653C222.161 60.7845 221.826 62.0275 222.272 62.8829Z" fill="#EDEDED"/>
<path d="M202.781 73.6478C202.424 73.2475 201.886 72.8288 201.408 73.0702C201.042 73.2543 200.942 73.7603 201.085 74.1439C201.259 74.5165 201.528 74.837 201.864 75.0738C202.862 75.8977 203.936 76.6413 204.806 77.599C206.364 79.3129 207.189 81.6255 208.883 83.2044C209.223 83.5705 209.674 83.8148 210.167 83.9C210.66 83.946 211.214 83.6297 211.271 83.1367C211.318 82.7305 211.035 82.367 210.759 82.0661C210.101 81.3494 209.38 80.6897 208.759 79.9409C208.472 79.6533 208.292 79.2762 208.248 78.872C208.245 78.4688 208.612 78.0468 209.002 78.1467C208.528 78.0252 208.176 77.2337 207.479 77.0849C206.897 76.9605 206.757 77.3213 206.064 77.0239C204.743 76.4566 203.706 74.6848 202.781 73.6478Z" fill="#EDEDED"/>
<path d="M134.668 46.1392C134.761 46.6363 134.852 47.1597 134.689 47.6384C134.526 48.117 134.014 48.517 133.531 48.3703C133.156 48.2565 132.939 47.8789 132.673 47.591C131.192 45.9901 127.851 46.917 126.936 44.9363C126.562 44.128 126.816 43.1595 126.561 42.3062C126.401 41.813 126.081 41.3872 125.652 41.0957C125.224 40.8042 124.711 40.6635 124.194 40.6957C123.722 40.7639 123.263 40.9011 122.831 41.1029C119.938 42.2629 116.902 43.0235 113.804 43.3636C113.215 43.3995 112.633 43.5056 112.07 43.6796C110.798 44.1413 109.929 45.322 109.31 46.5267C108.692 47.7315 108.235 49.0358 107.406 50.1062C106.535 51.2311 105.314 52.0189 104.175 52.8709C103.736 53.1541 103.37 53.5375 103.109 53.9897C102.862 54.4973 102.875 55.0877 102.895 55.652L103.127 62.5058C103.157 63.3874 103.195 64.3005 103.589 65.0894C104.081 66.0746 105.053 66.7198 105.728 67.59C106.416 68.4844 106.774 69.5893 106.742 70.7179C106.728 71.1716 106.683 71.7083 107.036 71.9932C107.251 72.1326 107.502 72.205 107.758 72.2011L117.017 72.9599C118.646 73.0934 120.451 73.3128 121.514 74.5553C122.016 75.1417 122.419 75.985 123.188 76.0479C123.518 76.0749 123.838 75.9394 124.168 75.9132C125 75.8473 125.731 76.4796 126.192 77.1761C126.891 78.2377 127.208 79.5054 127.091 80.7712C127.016 81.5657 126.77 82.3381 126.717 83.1344C126.515 86.1645 129.08 88.7971 129.13 91.8336C129.159 93.6196 128.312 95.2884 127.487 96.872C128.819 98.8931 127.728 101.584 128.259 103.947C128.762 106.189 130.628 107.944 131.094 110.194C131.307 111.224 131.319 112.491 132.226 113.022C132.624 113.216 133.065 113.304 133.507 113.278C136.173 113.31 138.809 112.709 141.199 111.525C142.321 110.968 143.483 110.136 143.679 108.897C143.837 107.899 143.331 106.782 143.846 105.912C144.453 104.887 146.007 104.968 146.899 104.18C148.347 102.901 147.218 100.462 147.805 98.6207C148.332 96.9651 150.148 96.0856 151.047 94.5997C151.401 93.9607 151.656 93.2711 151.801 92.5549C152.213 90.8432 152.47 89.0976 152.568 87.3396C152.592 86.2714 152.67 85.2052 152.803 84.1451C153.773 78.1099 159.732 74.0685 161.667 68.2707C161.852 67.717 161.938 66.9794 161.446 66.6661C161.155 66.5267 160.824 66.4921 160.51 66.5679L156.241 67.1068C155.711 67.1737 155.149 67.2362 154.662 67.0158C154.175 66.7953 153.826 66.1785 154.085 65.7101C154.81 64.3953 153.318 62.7338 152.656 61.3863C150.872 57.7581 148.747 54.3079 146.31 51.0823C146.154 50.9164 146.057 50.7041 146.032 50.4775L147.244 50.5179C146.835 49.0487 146.16 47.4409 144.734 46.9035C143.931 46.6006 143.041 46.7053 142.184 46.7522C139.73 46.8865 137.098 46.5154 134.668 46.1392Z" fill="#EDEDED"/>
<path d="M142.186 13.03C142.829 13.713 143.549 14.4372 144.478 14.5563C146.12 14.7666 147.3 13.0668 148.052 11.5903C148.079 11.9667 148.253 12.3174 148.535 12.5678C148.817 12.8182 149.185 12.9485 149.562 12.9311C149.967 12.8628 150.354 12.7114 150.698 12.4864C153.951 10.7066 157.594 9.76355 161.3 9.74203C161.265 9.46089 161.334 9.17651 161.496 8.94376C161.657 8.71101 161.899 8.54639 162.175 8.48166C162.928 8.33206 163.607 8.98446 163.971 9.66216C164.334 10.3399 164.561 11.1254 165.138 11.6326C165.716 12.1399 166.834 12.1178 167.062 11.3832C167.281 10.678 166.548 10.0766 165.938 9.66081C165.329 9.24504 164.686 8.4755 165.097 7.86192C168.211 7.17165 171.344 6.47877 174.531 6.34156C175.074 6.36048 175.614 6.26723 176.119 6.06763C176.605 5.82884 176.992 5.28678 176.861 4.76076C176.166 4.92444 175.437 4.87704 174.769 4.6246C174.1 4.37215 173.522 3.9261 173.108 3.34331C177.53 2.97795 182.233 2.66652 186.152 4.74987C186.622 5.76069 184.225 6.60169 184.866 7.5134C185.071 7.80418 185.481 7.83828 185.836 7.84488C188.559 7.89551 191.298 7.94515 193.99 7.53348C194.974 7.38304 195.968 7.17067 196.956 7.29266C198.602 7.49585 200.009 8.59514 201.628 8.95354C202.286 9.09942 203.025 9.10436 203.581 8.72066C204.136 8.33695 204.375 7.46324 203.92 6.96443C205.444 5.46872 207.973 5.83942 209.984 6.55549C211.995 7.27157 213.9 8.42635 216.028 8.58597C217.554 8.70043 219.101 8.28941 220.609 8.55066C221.557 8.71483 222.438 9.13693 223.365 9.39626C225.116 9.88674 226.969 9.7832 228.788 9.80681C233.428 9.8694 238.018 10.7826 242.33 12.5011C242.891 12.684 243.404 12.988 243.835 13.3917C244.236 13.8219 244.441 14.4903 244.171 15.0133L239.716 14.3615C240.136 15.189 241.222 15.33 242.103 15.6154C242.985 15.9009 243.9 16.8761 243.37 17.6375C242.414 17.3328 241.548 18.2895 241.066 19.1697C240.583 20.0498 239.995 21.104 238.993 21.1576C238.096 21.2056 237.012 20.441 236.427 21.1237C237.235 22.1438 237.926 23.2507 238.489 24.4242C239.067 25.6288 239.478 27.1467 238.697 28.2305C238.575 28.424 238.388 28.5687 238.171 28.6396C237.533 28.8012 237.119 28.0203 236.662 27.547C236.086 26.9507 235.215 26.7817 234.434 26.502C233.654 26.2223 232.832 25.6721 232.771 24.8447C232.733 24.3299 233.005 23.8513 233.205 23.3755C233.541 22.5735 233.688 21.7048 233.634 20.8367C233.591 20.1383 233.395 19.4118 232.894 18.9239C232.393 18.4359 231.528 18.2811 230.991 18.7281C230.74 18.9366 230.539 19.2701 230.213 19.2826C229.637 19.3047 229.195 18.2996 228.732 18.6427C228.786 19.0083 228.711 19.3813 228.518 19.6967C227.136 20.9003 225.012 20.3911 223.23 20.8163C222.383 21.0591 221.572 21.4139 220.818 21.8712C220.536 21.9919 220.296 22.1936 220.128 22.4508C219.906 22.8836 220.151 23.4379 220.543 23.7257C220.959 23.981 221.426 24.1407 221.911 24.1932C224.084 24.6051 226.288 25.2429 228.003 26.6401C229.718 28.0372 230.843 30.3468 230.3 32.493L226.016 28.3941C226.179 30.1151 226.271 31.8409 226.293 33.5714C226.321 33.9093 226.274 34.2491 226.157 34.5672C225.852 35.2427 225.024 35.47 224.299 35.6191C224.097 35.6575 223.905 35.7381 223.737 35.8558C223.569 35.9735 223.427 36.1255 223.322 36.3019C223.216 36.4783 223.149 36.6751 223.125 36.8793C223.1 37.0835 223.12 37.2905 223.181 37.4867C223.439 38.3278 224.081 38.9836 224.67 39.637C225.258 40.2904 225.837 41.0331 225.914 41.9095C225.991 42.7859 225.331 43.7738 224.454 43.7129C223.79 43.6667 223.297 43.071 223.013 42.4675C222.73 41.8639 222.561 41.1915 222.135 40.6787C220.846 39.1264 217.951 39.7915 216.796 38.1367C216.502 38.471 216.298 38.8751 216.203 39.3106C216.109 39.7461 216.127 40.1986 216.256 40.625C216.794 40.2883 217.529 40.6012 217.933 41.0905C218.336 41.5797 218.527 42.207 218.844 42.7566C219.271 43.4981 219.952 44.1555 220.012 45.0097C219.996 45.3327 220.001 45.6564 220.028 45.9787C220.134 46.4963 220.571 46.868 220.874 47.3006C221.579 48.3073 221.544 49.6902 221.09 50.8324C220.635 51.9746 219.819 52.929 219.011 53.8543C217.599 55.4705 216.158 57.0772 214.484 58.4194C214.006 58.8024 213.496 59.1789 213.199 59.7144C212.901 60.2498 212.886 61.0014 213.343 61.4087C213.016 61.4251 212.429 61.5862 212.102 61.6026C211.987 60.2886 211.962 58.9683 212.027 57.6509C210.736 57.0302 209.346 58.6924 209.513 60.1165C209.679 61.5407 210.708 62.6836 211.441 63.9157C211.976 64.8167 212.374 65.8674 212.196 66.9005C212.017 67.9337 211.096 68.8868 210.052 68.7957C208.393 68.6508 207.699 66.2654 206.056 65.9924C205.911 65.9584 205.759 65.9735 205.623 66.0354C205.379 66.1695 205.337 66.4963 205.323 66.7745C205.256 68.1403 205.198 69.5604 205.73 70.8196C206.509 72.6617 208.521 74.2089 208.099 76.1642C205.825 75.1058 204.643 72.5523 204.106 70.0996C203.569 67.6469 203.48 65.0721 202.518 62.7534C201.787 63.6911 200.251 62.9159 199.583 61.9322C198.951 60.9995 198.561 59.9206 197.947 58.9754C197.333 58.0302 196.392 57.1838 195.267 57.1318C194.088 57.0773 193.065 57.8878 192.165 58.6535C191.425 59.2832 190.666 59.9377 190.234 60.8081C189.604 62.0747 189.769 63.5679 189.739 64.9823C189.706 66.5113 189.382 68.1245 188.341 69.2439C187.301 70.3633 185.38 70.7532 184.232 69.7443C183.632 69.2177 183.342 68.4307 183.084 67.6754C181.838 64.0344 180.8 60.3253 179.976 56.5661C179.783 57.4241 179.03 58.53 178.312 58.0245C178.15 57.8887 178.02 57.7201 177.928 57.5299C176.587 55.2544 174.104 53.8896 171.595 53.0712C169.087 52.2529 166.447 51.8711 163.966 50.9717C162.576 50.4675 161.248 49.8052 160.008 48.9977C159.692 49.4625 159.508 50.0043 159.474 50.5655C159.441 51.1268 159.559 51.6867 159.818 52.1859C160.368 53.1616 161.614 53.7262 162.68 53.3851C163.231 53.2089 163.696 52.8259 164.242 52.6368C164.789 52.4477 165.523 52.5405 165.762 53.0679C165.991 53.5726 165.645 54.1832 165.816 54.7102C166.078 55.5128 167.287 55.5747 167.709 56.3051C168.024 56.8485 167.765 57.5702 167.316 58.0087C166.867 58.4473 166.268 58.6878 165.719 58.993C163.94 59.9835 162.675 61.6743 161.121 62.9898C159.566 64.3053 157.373 65.2657 155.52 64.4219C155.962 62.1827 153.298 60.5387 152.808 58.3096C152.646 57.5759 152.73 56.7965 152.5 56.0815C152.166 55.0463 151.249 54.3346 150.497 53.5501C149.584 52.5883 148.873 51.4531 148.405 50.2117C147.938 48.9702 147.724 47.6476 147.775 46.3219C147.816 45.4006 147.985 44.4643 147.775 43.5664C147.565 42.6684 146.823 41.7993 145.903 41.84C143.802 41.9329 141.154 42.0895 140.052 40.2958C139.658 39.6556 139.487 38.718 140.056 38.2275C140.457 37.8815 141.05 37.9141 141.577 37.966L146.311 38.4324C147.419 38.5415 148.616 38.6315 149.566 38.0518C150.516 37.4721 150.928 35.9334 150.048 35.2514C149.405 34.7531 148.253 34.7801 148.067 33.9878C147.911 33.328 148.64 32.5793 148.246 32.0278C147.964 31.6324 147.329 31.7421 146.944 32.0385C146.559 32.3349 146.28 32.7684 145.849 32.9929C145.094 33.3866 144.191 33.0119 143.378 32.7572C142.565 32.5026 141.476 32.4809 141.081 33.2369C140.64 34.0823 141.472 35.1901 141.035 36.0372C140.456 37.1573 138.497 36.5197 137.684 37.4831C136.752 38.5886 138.319 40.2371 138.004 41.6493C137.603 41.8484 137.157 41.9398 136.71 41.9147C136.262 41.8895 135.829 41.7486 135.453 41.5058C135.082 41.2535 134.787 40.9054 134.598 40.4985C134.41 40.0916 134.335 39.6411 134.382 39.195C134.459 38.5597 134.79 37.9111 134.569 37.3108C134.389 36.8253 133.903 36.5364 133.45 36.2861L128.849 33.7402C128.422 34.5337 128.962 35.5174 129.637 36.1134C130.313 36.7093 131.159 37.1582 131.602 37.9425C131.883 38.486 131.946 39.1162 131.778 39.7045C131.611 40.2928 131.225 40.7948 130.7 41.108C130.634 41.1534 130.56 41.1841 130.481 41.1978C130.402 41.2116 130.321 41.2081 130.244 41.1876C130.171 41.1444 130.107 41.0869 130.056 41.0185C130.005 40.9501 129.968 40.8722 129.948 40.7894C129.136 38.7091 127.918 36.6581 125.969 35.5715C124.02 34.4848 121.22 34.7082 119.942 36.5388C119.639 36.9736 119.435 37.4692 119.171 37.9289C117.766 40.3711 114.754 41.5276 111.941 41.4521C111.665 41.4673 111.391 41.4029 111.152 41.2665C110.697 40.952 110.718 40.2847 110.787 39.7358L111.083 37.4061C111.142 36.9383 111.228 36.4212 111.598 36.1292C112.119 35.7176 112.871 35.9774 113.535 35.9678C114.037 35.9442 114.521 35.7664 114.92 35.4584C115.318 35.1504 115.612 34.7271 115.763 34.246C115.897 33.7601 115.896 33.2468 115.76 32.7614C115.624 32.2759 115.359 31.8368 114.992 31.4912C114.688 31.2051 114.28 30.8457 114.441 30.46C114.505 30.3533 114.591 30.2619 114.695 30.1924C114.798 30.1228 114.915 30.0767 115.038 30.0574C116.23 29.7107 117.49 29.6198 118.662 29.2107C119.835 28.8016 120.972 27.9646 121.25 26.7529C121.335 26.3815 121.373 25.9317 121.707 25.7476C121.874 25.6769 122.053 25.6402 122.235 25.6395C122.87 25.549 123.449 25.2235 123.857 24.727C124.265 24.2306 124.473 23.5992 124.439 22.9572C125.001 22.564 125.788 22.8532 126.332 23.2714C126.875 23.6895 127.355 24.242 128.017 24.4223C129.249 24.7582 130.441 23.6654 131.718 23.6603C132.255 23.6582 132.812 23.8484 133.317 23.666C133.829 23.4811 134.135 22.9704 134.529 22.5931C134.922 22.2158 135.612 21.9857 135.975 22.3921L135.666 20.0988C136.288 20.2564 136.938 20.2786 137.57 20.1642C138.202 20.0498 138.802 19.8013 139.33 19.4355L135.334 18.0835C135.195 18.0487 135.066 17.9799 134.96 17.8834C134.67 17.5701 134.958 17.082 135.194 16.7259C135.76 15.874 135.854 14.4708 134.925 14.0467C134.291 13.7572 133.562 14.1047 132.954 14.4447L130.037 16.0731C129.944 16.6282 130.622 16.9429 131.042 17.3168C131.296 17.543 131.476 17.841 131.558 18.1715C131.64 18.5019 131.621 18.8495 131.502 19.1686C131.383 19.4876 131.17 19.7632 130.892 19.9591C130.614 20.155 130.283 20.2621 129.943 20.2662C130.135 20.5163 130.268 20.8063 130.333 21.115C130.398 21.4237 130.393 21.743 130.318 22.0494L128.356 22.1907C128.135 22.2351 127.906 22.1904 127.719 22.0663C127.509 21.8797 127.538 21.5526 127.489 21.2758C127.372 20.6076 126.718 20.1393 126.051 20.0192C125.384 19.8991 124.702 20.0531 124.042 20.205C123.761 20.3061 123.454 20.2989 123.178 20.1851C123.02 20.0823 122.9 19.9307 122.836 19.7532C122.547 19.0504 122.818 18.2242 123.282 17.6232C123.747 17.0221 124.384 16.5827 124.956 16.0824C126.323 14.8814 127.327 13.3215 127.855 11.5791C128.936 11.1259 130.054 10.51 131.134 10.0568C132.8 9.21242 134.668 8.85006 136.528 9.01046L140.186 9.08044C141.27 9.10115 142.382 9.1277 143.384 9.54119C144.385 9.95468 145.266 10.849 145.335 11.9316C145.356 12.0542 145.345 12.18 145.304 12.2974C145.263 12.4147 145.193 12.5197 145.1 12.6025C144.959 12.6798 144.798 12.7159 144.638 12.7069C143.627 12.7424 143.197 12.9944 142.186 13.03Z" fill="#EDEDED"/>
<path d="M53.664 3.9139C53.0355 3.70565 52.3583 3.69595 51.7241 3.88611C51.09 4.07627 50.5296 4.4571 50.1189 4.97694C49.9548 5.19329 49.817 5.49152 49.9544 5.72578C50.1513 6.06163 50.6532 5.92898 51.0232 5.80884C51.567 5.61429 52.1589 5.60015 52.7114 5.76851C53.0589 5.88795 53.3697 6.09905 53.7186 6.21397C53.8885 6.28511 54.0745 6.30861 54.2567 6.28195C54.4389 6.25529 54.6104 6.17949 54.7528 6.06265C54.9923 5.81809 55.0073 5.43788 55.0078 5.09536C55.0244 4.98075 55.0152 4.86388 54.981 4.75326C54.9467 4.64265 54.8882 4.54109 54.8098 4.45599C54.6701 4.37498 54.5131 4.3285 54.3519 4.32039C53.9909 4.25348 53.6645 4.06251 53.429 3.78042" fill="#EDEDED"/>
<path d="M57.2575 2.91207C57.1168 2.90441 56.9766 2.93309 56.8502 2.99538C56.7238 3.05767 56.6156 3.15147 56.5359 3.26775C56.4562 3.38403 56.4077 3.51889 56.3951 3.65935C56.3825 3.79982 56.4062 3.94116 56.464 4.0698C56.8959 4.18775 57.3471 4.21721 57.7907 4.15642C58.0119 4.12203 58.2181 4.02283 58.3831 3.87134C58.5481 3.71984 58.6647 3.52282 58.718 3.30511C58.1958 3.40027 57.6569 3.29722 57.2065 3.01605" fill="#EDEDED"/>
<path d="M69.3145 1.23882C68.1389 1.48908 66.9969 1.87751 65.9124 2.39603C66.4237 2.59281 66.8583 2.94885 67.1522 3.41168C67.4462 3.87451 67.5838 4.41964 67.5449 4.96673C67.4991 5.17677 67.5044 5.39478 67.5604 5.60232C67.6854 5.90563 68.0475 6.01944 68.3658 6.09729C68.9377 6.27156 69.5348 6.34788 70.1321 6.32303C70.4309 6.30738 70.721 6.21738 70.9763 6.06117C71.2316 5.90497 71.444 5.6875 71.5942 5.42843C71.6807 5.18254 71.7823 4.94221 71.8982 4.70877C72.6612 3.54525 74.9279 4.95212 75.7471 3.82756C76.0356 3.43142 76.0092 2.83512 76.3854 2.52122C76.58 2.38446 76.8055 2.29828 77.0417 2.27046C78.6891 1.94273 80.3531 1.70543 82.0264 1.55961C82.8192 1.49052 83.8526 1.20547 83.8592 0.408649C80.8729 -0.178602 77.7765 0.238487 75.0514 1.59507C74.0696 2.08747 72.771 3.12326 71.8253 2.47045C71.4711 2.22603 71.4887 1.56786 71.0013 1.29301C70.503 1.01201 69.8434 1.1263 69.3145 1.23882Z" fill="#EDEDED"/>
<path d="M79.0805 3.06752L80.4823 3.33722C80.2243 3.32578 79.9668 3.36956 79.727 3.46566C79.4872 3.56176 79.2706 3.70795 79.0917 3.8945C78.9128 4.08104 78.7757 4.30364 78.6895 4.54744C78.6034 4.79124 78.5701 5.05064 78.592 5.30834C79.9047 5.74744 81.3359 5.32014 82.7187 5.37851C84.1015 5.43688 85.7105 6.42593 85.4744 7.79146C85.403 8.20435 85.1648 8.61696 85.2887 9.01721C85.3755 9.29775 85.6226 9.49681 85.7621 9.75518C86.0527 10.2936 85.8204 10.9746 85.4534 11.464C85.0865 11.9534 84.5932 12.3439 84.2711 12.864C83.4699 14.1576 83.9251 15.83 84.4023 17.2752C84.5403 17.8213 84.7952 18.3308 85.1492 18.7686C85.8562 19.5213 87.0085 19.5868 88.0404 19.6019C88.7915 19.6128 89.6519 19.5757 90.1268 18.993C90.7469 18.2323 90.3133 17.0454 90.7216 16.1526C91.0924 15.3418 92.037 14.9939 92.8929 14.7472C94.4609 14.2952 96.0588 13.911 97.5412 13.2283C99.3819 12.3805 101.102 11.0594 103.125 10.9502C103.693 10.9196 104.275 10.9867 104.821 10.831C105.368 10.6753 105.887 10.202 105.846 9.63433C105.811 9.14932 105.401 8.79317 105.081 8.42755C104.76 8.06193 104.509 7.49971 104.803 7.11287L110.106 6.12109C109.73 5.09534 109.438 3.74441 110.301 3.07674C110.613 2.83584 111.03 2.73956 111.296 2.44832C111.748 1.95195 111.52 1.0969 110.998 0.674759C110.476 0.252621 109.77 0.154624 109.102 0.0990043C106.776 -0.0943569 104.438 0.0334122 102.108 0.161281C97.5539 0.411235 92.9998 0.661191 88.4456 0.911144C87.5288 0.96146 86.4703 0.88459 85.6295 1.19777C84.9177 1.4629 84.4115 1.94959 83.5974 2.12058C82.0945 2.43625 80.4405 2.22264 79.0805 3.06752Z" fill="#EDEDED"/>
<path d="M104.193 14.1622C104.051 14.1396 103.905 14.1728 103.785 14.2549C103.707 14.3417 103.66 14.4529 103.653 14.5699C103.562 15.0867 103.67 15.6186 103.954 16.0591C104.099 16.2752 104.299 16.4485 104.534 16.561C104.768 16.6736 105.028 16.7212 105.287 16.699C105.919 16.6184 106.384 16.0793 106.964 15.8161C107.859 15.411 111.657 14.7794 109.029 13.3581C108.124 12.8683 107.539 13.3007 106.825 13.6232C106.013 14.0392 105.103 14.2255 104.193 14.1622Z" fill="#EDEDED"/>
<path d="M127.207 2.26517C126.9 2.39068 126.643 2.61438 126.477 2.90134C126.4 3.04705 126.382 3.21671 126.427 3.3752C126.472 3.5337 126.576 3.6689 126.717 3.75284C126.832 3.79444 126.953 3.81374 127.075 3.80969L128.323 3.84701C128.852 3.86286 129.514 3.97587 129.657 4.48723C129.763 4.86693 129.526 5.35485 129.812 5.62619C129.934 5.72122 130.081 5.77877 130.236 5.79192C130.647 5.89762 131.076 5.91149 131.493 5.83254C132.4 5.58877 131.924 5.03407 132.209 4.54016C132.647 3.78445 132.571 4.24192 133.342 3.8088C133.911 3.48894 134.646 2.90871 134.171 2.09347C133.345 0.675786 128.426 1.65614 127.207 2.26517Z" fill="#EDEDED"/>
<path d="M151.828 1.55229L151.104 1.64908C149.471 1.86734 147.828 2.0876 146.255 2.57876C146.936 2.84837 147.65 3.02392 148.378 3.10057C148.779 3.12025 149.178 3.17694 149.568 3.2699C150.263 3.47703 150.963 4.0119 151.635 3.73791C152.051 3.56802 152.187 3.13406 152.531 2.90406C152.77 2.74525 153.673 2.48821 153.774 2.32792C154.59 1.03206 152.456 1.46847 151.828 1.55229Z" fill="#EDEDED"/>
<path d="M155.009 4.84892C154.042 5.39065 153.144 6.04893 152.336 6.80908C151.996 7.12943 151.648 7.52786 151.679 7.99455C151.72 8.61482 152.38 8.97461 152.952 9.21698L155.267 10.1987C155.548 9.8022 155.291 9.25493 155.001 8.86533C154.711 8.47573 154.366 8.02498 154.494 7.55615C154.64 7.02113 155.292 6.83881 155.838 6.74664C156.728 6.59647 159.129 6.60852 158.841 5.17215C158.501 3.47967 155.903 4.34883 155.009 4.84892Z" fill="#EDEDED"/>
<path d="M233.822 34.6736C233.443 34.5608 233.071 34.4275 232.706 34.2744C231.725 33.9796 230.428 34.7015 230.558 35.7185C230.645 36.3942 231.273 36.8498 231.62 37.4359C232.135 38.3052 231.997 39.4076 231.727 40.3811C231.661 40.6825 231.535 40.9674 231.356 41.219C231.106 41.4846 230.808 41.6996 230.477 41.8521C229.152 42.5959 227.984 43.5895 227.037 44.7782C226.934 44.888 226.863 45.0234 226.83 45.1703C226.783 45.5137 227.127 45.7638 227.322 46.0502C227.755 46.6864 227.442 47.5425 227.485 48.3111C227.479 48.4198 227.5 48.5284 227.547 48.6265C227.594 48.7247 227.665 48.8092 227.754 48.872C228.015 49.0047 228.324 48.7792 228.466 48.5227C228.935 47.6713 228.581 46.3046 229.462 45.8941C229.629 45.8164 229.83 45.7837 229.942 45.6372C230.118 45.4048 229.948 45.0607 230.037 44.7829C230.171 44.3658 230.741 44.3471 231.178 44.3656C231.931 44.3971 232.684 44.2968 233.403 44.0691C233.685 44.0019 233.941 43.8535 234.139 43.6421C234.402 43.3132 234.379 42.8455 234.326 42.4273C234.063 40.3426 233.403 38.3276 232.383 36.4912C233.157 36.5901 233.998 36.6758 234.666 36.2722C235.04 36.0462 235.488 35.3703 235.302 34.9103C235.009 34.1829 234.48 34.7952 233.822 34.6736Z" fill="#EDEDED"/>
<path d="M113.025 24.5112C113.168 24.3758 113.27 24.2035 113.322 24.0133C113.373 23.8231 113.372 23.6223 113.317 23.4331C112.969 23.2987 112.59 23.2642 112.224 23.3335C111.858 23.4027 111.518 23.573 111.243 23.8252C111.026 24.0447 110.839 24.2919 110.687 24.5605C110.207 25.3459 109.781 26.284 110.06 27.1619C110.083 27.2577 110.124 27.3479 110.182 27.4273C110.24 27.5068 110.314 27.5738 110.398 27.6245C110.523 27.6747 110.657 27.6958 110.792 27.6863C111.321 27.6856 111.85 27.653 112.376 27.5886C112.699 27.5491 113.074 27.4578 113.199 27.157C113.363 26.7617 112.966 26.3143 113.081 25.9022C113.157 25.7179 113.273 25.5524 113.419 25.4174C113.492 25.3494 113.548 25.2654 113.583 25.172C113.617 25.0786 113.63 24.9784 113.619 24.8793C113.572 24.686 113.276 24.5763 113.17 24.7443" fill="#EDEDED"/>
<path d="M115.771 20.9461C115.3 20.8379 114.815 20.8074 114.335 20.8558C114.229 20.8527 114.123 20.8766 114.029 20.9254C113.937 20.993 113.871 21.0892 113.84 21.1988C113.739 21.5248 113.764 21.8771 113.91 22.1856C114.057 22.494 114.314 22.736 114.63 22.8632C114.803 22.9029 114.968 22.9694 115.12 23.0602C115.526 23.3757 115.267 24.0205 115.344 24.5294C115.43 25.1008 115.983 25.5804 115.881 26.1493C115.802 26.5975 115.323 26.9524 115.4 27.4012C115.481 27.8711 116.077 28.0123 116.551 28.05C116.827 28.0982 117.11 28.0657 117.367 27.9564C117.625 27.78 117.808 27.5142 117.881 27.2104C118.076 26.6311 118.157 26.0199 118.122 25.4098C118.12 25.1324 118.05 24.8596 117.919 24.6151C117.776 24.4214 117.618 24.2397 117.445 24.0718C116.536 23.0124 117.493 21.4322 115.771 20.9461Z" fill="#EDEDED"/>
<path d="M154.117 2.34622C152.02 2.34797 150.009 3.17938 148.523 4.65885C147.038 6.13832 146.198 8.14562 146.187 10.2423C146.187 13.386 147.951 16.018 149.243 17.9365L149.479 18.2866C150.765 20.1503 152.144 21.9477 153.612 23.6718L154.124 24.2709L154.635 23.6718C156.103 21.9475 157.482 20.1501 158.768 18.2866L159.004 17.9298C160.29 16.0113 162.053 13.386 162.053 10.2423C162.043 8.14446 161.202 6.13613 159.715 4.65647C158.227 3.17681 156.215 2.34619 154.117 2.34622ZM154.117 13.7899C153.243 13.7899 152.39 13.5309 151.663 13.0457C150.937 12.5604 150.371 11.8708 150.037 11.0639C149.703 10.257 149.615 9.36907 149.786 8.51247C149.956 7.65587 150.377 6.86903 150.994 6.25146C151.612 5.63388 152.399 5.21331 153.255 5.04292C154.112 4.87253 155 4.95998 155.807 5.29421C156.614 5.62844 157.303 6.19444 157.788 6.92063C158.274 7.64682 158.533 8.50059 158.533 9.37397C158.533 10.5451 158.067 11.6683 157.239 12.4965C156.411 13.3246 155.288 13.7899 154.117 13.7899Z" fill="#0D47A1"/>
<path d="M154.117 11.8849C155.504 11.8849 156.628 10.7608 156.628 9.37406C156.628 7.98735 155.504 6.86319 154.117 6.86319C152.73 6.86319 151.606 7.98735 151.606 9.37406C151.606 10.7608 152.73 11.8849 154.117 11.8849Z" fill="#0D47A1"/>
</svg>
