<svg width="18" height="16" fill="none" xmlns="http://www.w3.org/2000/svg"><path fill-rule="evenodd" clip-rule="evenodd" d="M8.46 4.63l.039.624-.63-.077c-2.291-.292-4.293-1.284-5.993-2.949l-.831-.826-.214.61c-.453 1.36-.164 2.797.78 3.763.504.534.39.61-.478.292-.302-.102-.566-.178-.592-.14-.088.09.214 1.246.454 1.704.327.635.994 1.258 1.725 1.627l.617.292-.73.013c-.706 0-.731.012-.655.28.251.825 1.246 1.703 2.354 2.084l.78.267-.68.407a7.09 7.09 0 01-3.374.94c-.566.013-1.032.064-1.032.102 0 .127 1.536.839 2.43 1.118 2.682.827 5.867.47 8.26-.94 1.7-1.004 3.399-3 4.192-4.932.428-1.03.856-2.91.856-3.813 0-.585.038-.661.743-1.36.416-.407.806-.852.881-.98.126-.24.114-.24-.528-.025-1.07.382-1.222.33-.693-.241.39-.407.856-1.144.856-1.36 0-.038-.189.025-.403.14-.226.127-.73.317-1.108.432l-.68.216-.616-.42c-.34-.228-.819-.483-1.07-.559-.643-.178-1.625-.152-2.204.051-1.574.572-2.568 2.046-2.455 3.66z" fill="#fff"/></svg>