<svg width="16" height="16" viewBox="0 0 16 16" fill="none" xmlns="http://www.w3.org/2000/svg">
<g clip-path="url(#clip0_89_486)">
<circle cx="8" cy="4" r="3" stroke="#3F3F40" stroke-width="2"/>
<mask id="path-2-inside-1_89_486" fill="white">
<path d="M16 15.6C16 14.3918 15.7931 13.1955 15.391 12.0793C14.989 10.9631 14.3997 9.94891 13.6569 9.09461C12.914 8.24031 12.0321 7.56265 11.0615 7.1003C10.0909 6.63796 9.05057 6.39999 8 6.39999C6.94942 6.39999 5.90914 6.63796 4.93853 7.1003C3.96793 7.56265 3.08601 8.24031 2.34315 9.09461C1.60028 9.94891 1.011 10.9631 0.608964 12.0793C0.206926 13.1955 -9.18442e-08 14.3918 0 15.6L8 15.6H16Z"/>
</mask>
<path d="M16 15.6C16 14.3918 15.7931 13.1955 15.391 12.0793C14.989 10.9631 14.3997 9.94891 13.6569 9.09461C12.914 8.24031 12.0321 7.56265 11.0615 7.1003C10.0909 6.63796 9.05057 6.39999 8 6.39999C6.94942 6.39999 5.90914 6.63796 4.93853 7.1003C3.96793 7.56265 3.08601 8.24031 2.34315 9.09461C1.60028 9.94891 1.011 10.9631 0.608964 12.0793C0.206926 13.1955 -9.18442e-08 14.3918 0 15.6L8 15.6H16Z" stroke="#3F3F40" stroke-width="4" mask="url(#path-2-inside-1_89_486)"/>
</g>
<defs>
<clipPath id="clip0_89_486">
<rect width="16" height="16" fill="white"/>
</clipPath>
</defs>
</svg>
