<svg width="16" height="16" fill="none" xmlns="http://www.w3.org/2000/svg"><g clip-path="url(#clip0_89_486)"><circle cx="8" cy="4" r="3" stroke="#3F3F40" stroke-width="2"/><mask id="path-2-inside-1_89_486" fill="#fff"><path d="M16 15.6c0-1.208-.207-2.405-.609-3.52a9.397 9.397 0 00-1.734-2.985A8.027 8.027 0 0011.062 7.1 7.118 7.118 0 008 6.4a7.11 7.11 0 00-3.061.7 8.027 8.027 0 00-2.596 1.995A9.396 9.396 0 00.61 12.079 10.41 10.41 0 000 15.6h16z"/></mask><path d="M16 15.6c0-1.208-.207-2.405-.609-3.52a9.397 9.397 0 00-1.734-2.985A8.027 8.027 0 0011.062 7.1 7.118 7.118 0 008 6.4a7.11 7.11 0 00-3.061.7 8.027 8.027 0 00-2.596 1.995A9.396 9.396 0 00.61 12.079 10.41 10.41 0 000 15.6h16z" stroke="#3F3F40" stroke-width="4" mask="url(#path-2-inside-1_89_486)"/></g><defs><clipPath id="clip0_89_486"><path fill="#fff" d="M0 0h16v16H0z"/></clipPath></defs></svg>