<svg width="22" height="12" fill="none" xmlns="http://www.w3.org/2000/svg"><path d="M21.137.527h-3.57a.83.83 0 00-.414.11.789.789 0 00-.296.299s-1.424 2.52-1.882 3.37c-1.23 2.284-2.027 1.566-2.027.506V1.157a1.13 1.13 0 00-.35-.814 1.223 1.223 0 00-.848-.337H9.066a2.226 2.226 0 00-1.064.186c-.333.148-.62.376-.836.661 0 0 1.363-.212 1.363 1.554 0 .438.024 1.697.045 2.753a.74.74 0 01-.131.439.786.786 0 01-.369.287.821.821 0 01-.473.034.798.798 0 01-.408-.234A22.22 22.22 0 014.483.947a.732.732 0 00-.278-.306.774.774 0 00-.406-.114H.555A.57.57 0 00.1.753a.518.518 0 00-.066.488C1.02 3.84 5.262 12 10.104 12h2.039a.822.822 0 00.57-.227.76.76 0 00.235-.547v-1.183a.74.74 0 01.13-.418.785.785 0 01.347-.28.82.82 0 01.856.143l2.44 2.204c.219.198.508.308.809.308h3.204c1.545 0 1.545-1.03.702-1.828-.593-.562-2.732-2.73-2.732-2.73a1.034 1.034 0 01-.085-1.38 905.52 905.52 0 002.302-2.92c.656-.838 1.843-2.615.216-2.615z" fill="#fff"/></svg>